<?xml version="1.0" standalone="no"?>
<!DOCTYPE svg PUBLIC "-//W3C//DTD SVG 1.1//EN" "http://www.w3.org/Graphics/SVG/1.1/DTD/svg11.dtd" >
<svg xmlns="http://www.w3.org/2000/svg">
<metadata>Generated by IcoMoon</metadata>
<defs>
<font id="icomoon" horiz-adv-x="1024">
<font-face units-per-em="1024" ascent="960" descent="-64" />
<missing-glyph horiz-adv-x="1024" />
<glyph unicode="&#x20;" d="" horiz-adv-x="512" />
<glyph unicode="&#xe000;" d="M512 822.857q69.667 0 135.5-21.167t115.5-55 93.5-74.833 73.667-82 51.667-74.833 32.167-54.833l10-21.333q-2.333-5-6.333-13.5t-18.833-34.667-31.667-51.667-44.333-60-56.833-64.333-69.5-60.167-82.333-51.5-94.833-34.667-107.333-13.5q-69.667 0-135.5 21.167t-115.5 54.833-93.5 74.333-73.667 81.5-51.667 74.5-32.167 55l-10 21q2.333 5 6.333 13.5t18.833 34.833 31.667 51.833 44.333 60.333 56.833 64.667 69.5 60.333 82.333 51.833 94.833 34.833 107.333 13.5zM512 737.524q-46.667 0-91.667-12.333t-81.167-31.833-70.667-47.167-59.667-54.5-48.833-57.667-37.667-52.833-26.333-44q12.333-21.667 26.333-43.5t37.667-52.333 48.833-57 59.667-53.833 70.667-46.667 81.167-31.5 91.667-12.167 91.667 12.333 81.167 31.667 70.667 46.833 59.667 54.167 48.833 57.333 37.667 52.667 26.333 43.667q-12.333 21.667-26.333 43.667t-37.667 52.667-48.833 57.333-59.667 54.167-70.667 46.833-81.167 31.667-91.667 12.333zM512 609.524q70.667 0 120.667-50t50-120.667-50-120.667-120.667-50-120.667 50-50 120.667 50 120.667 120.667 50zM512 524.19q-35.333 0-60.333-25t-25-60.333 25-60.333 60.333-25 60.333 25 25 60.333-25 60.333-60.333 25z" />
<glyph unicode="&#xe004;" d="M170.667 908.19h682.667q53 0 90.5-37.5t37.5-90.5v-682.667q0-53-37.5-90.5t-90.5-37.5h-682.667q-53 0-90.5 37.5t-37.5 90.5v682.667q0 53 37.5 90.5t90.5 37.5zM341.333 54.857v512h-213.333v-469.333q0-17.667 12.5-30.167t30.167-12.5h170.667zM896 97.524v469.333h-469.333v-512h426.667q17.667 0 30.167 12.5t12.5 30.167zM853.333 822.857h-682.667q-17.667 0-30.167-12.5t-12.5-30.167v-128h768v128q0 17.667-12.5 30.167t-30.167 12.5z" />
<glyph unicode="&#xe014;" d="M512 896q95.667 0 182.5-37.167t149.667-100 100-149.667 37.167-182.5-37.167-182.5-100-149.667-149.667-100-182.5-37.167-182.5 37.167-149.667 100-100 149.667-37.167 182.5 37.167 182.5 100 149.667 149.667 100 182.5 37.167zM512 810.667q-78 0-149.167-30.5t-122.5-81.833-81.833-122.5-30.5-149.167 30.5-149.167 81.833-122.5 122.5-81.833 149.167-30.5 149.167 30.5 122.5 81.833 81.833 122.5 30.5 149.167-30.5 149.167-81.833 122.5-122.5 81.833-149.167 30.5zM512 725.334q17.667 0 30.167-12.5t12.5-30.167v-238.333l115.667-115.333q12.333-12.333 12.333-30.333t-12.333-30.333-30.333-12.333-30.333 12.333l-128 128q-12.333 12.333-12.333 30.333v256q0 17.667 12.5 30.167t30.167 12.5z" />
<glyph unicode="&#xe015;" d="M384 950.857h256q53 0 90.5-37.5t37.5-90.5v-98q60-53.333 94-127.833t34-158.167-34-158-94-128v-98q0-53-37.5-90.5t-90.5-37.5h-256q-53 0-90.5 37.5t-37.5 90.5v98q-60 53.667-94 128t-34 158 34 158.167 94 127.833v98q0 53 37.5 90.5t90.5 37.5zM682.667 54.857v40q-80-40-170.667-40t-170.667 40v-40q0-17.667 12.5-30.167t30.167-12.5h256q17.667 0 30.167 12.5t12.5 30.167zM512 737.524q-60.667 0-116-23.667t-95.333-63.667-63.667-95.333-23.667-116 23.667-116 63.667-95.333 95.333-63.667 116-23.667 116 23.667 95.333 63.667 63.667 95.333 23.667 116-23.667 116-63.667 95.333-95.333 63.667-116 23.667zM512 652.19q17.667 0 30.167-12.5t12.5-30.167v-153l73-72.667q12.333-12.333 12.333-30.333t-12.333-30.333-30.333-12.333-30.333 12.333l-85.333 85.333q-12.333 12.333-12.333 30.333v170.667q0 17.667 12.5 30.167t30.167 12.5zM640 865.524h-256q-17.667 0-30.167-12.5t-12.5-30.167v-40q80 40 170.667 40t170.667-40v40q0 17.667-12.5 30.167t-30.167 12.5z" />
<glyph unicode="&#xe018;" d="M128 737.524h469.333q53 0 90.5-37.5t37.5-90.5v-77.667l298.667 163v-512l-298.667 163v-77.667q0-53-37.5-90.5t-90.5-37.5h-469.333q-53 0-90.5 37.5t-37.5 90.5v341.333q0 53 37.5 90.5t90.5 37.5zM597.333 652.19h-469.333q-17.667 0-30.167-12.5t-12.5-30.167v-341.333q0-17.667 12.5-30.167t30.167-12.5h469.333q17.667 0 30.167 12.5t12.5 30.167v341.333q0 17.667-12.5 30.167t-30.167 12.5zM938.667 326.524v224.667l-205.667-112.333z" />
<glyph unicode="&#xe036;" d="M426.667 896q78 0 149.167-30.5t122.5-81.833 81.833-122.5 30.5-149.167q0-67-21.833-128.333t-62.167-111.333l242.333-242q12.333-12.333 12.333-30.333 0-18.333-12.167-30.5t-30.5-12.167q-18 0-30.333 12.333l-242 242.333q-50-40.333-111.333-62.167t-128.333-21.833q-78 0-149.167 30.5t-122.5 81.833-81.833 122.5-30.5 149.167 30.5 149.167 81.833 122.5 122.5 81.833 149.167 30.5zM426.667 810.667q-60.667 0-116-23.667t-95.333-63.667-63.667-95.333-23.667-116 23.667-116 63.667-95.333 95.333-63.667 116-23.667 116 23.667 95.333 63.667 63.667 95.333 23.667 116-23.667 116-63.667 95.333-95.333 63.667-116 23.667z" />
<glyph unicode="&#xe072;" d="M682.667 737.524l341.333 213.333v-810.667l-341.333-213.333-341.333 213.333-341.333-213.333v810.667l341.333 213.333zM298.667 214.19v609l-213.333-133.333v-609zM640 663.524l-256 160.333v-609.667l256-160v609.333zM938.667 187.524v609.333l-213.333-133.333v-609.333z" />
<glyph unicode="&#xe077;" d="M512 908.19q70.667 0 120.667-50t50-120.667q0-59-36-104.833t-92-60.167v-515.333q71 8 134.167 41.167t108.667 83.5 72 117.333 26.5 139.667q0 17.667 12.5 30.167t30.167 12.5 30.167-12.5 12.5-30.167q0-95.667-37.167-182.5t-100-149.667-149.667-100-182.5-37.167-182.5 37.167-149.667 100-100 149.667-37.167 182.5q0 17.667 12.5 30.167t30.167 12.5 30.167-12.5 12.5-30.167q0-72.667 26.5-139.667t72-117.333 108.667-83.5 134.167-41.167v515.333q-56 14.333-92 60.167t-36 104.833q0 70.667 50 120.667t120.667 50zM512 822.857q-35.333 0-60.333-25t-25-60.333 25-60.333 60.333-25 60.333 25 25 60.333-25 60.333-60.333 25z" />
<glyph unicode="&#xe081;" d="M768 865.524q70.667 0 120.667-50t50-120.667-50-120.667-120.667-50q-37.667 0-71.167 15.5t-57.5 43.167l-216.333-108.333q3.667-17.667 3.667-35.667t-3.667-35.667l216.333-108.333q24 27.667 57.5 43.167t71.167 15.5q70.667 0 120.667-50t50-120.667-50-120.667-120.667-50-120.667 50-50 120.667q0 18 3.667 35.667l-216.333 108.333q-24-27.667-57.5-43.167t-71.167-15.5q-70.667 0-120.667 50t-50 120.667 50 120.667 120.667 50q37.667 0 71.167-15.5t57.5-43.167l216.333 108.333q-3.667 17.667-3.667 35.667 0 70.667 50 120.667t120.667 50zM256 524.19q-35.333 0-60.333-25t-25-60.333 25-60.333 60.333-25 60.333 25 25 60.333-25 60.333-60.333 25zM768 268.19q-35.333 0-60.333-25t-25-60.333 25-60.333 60.333-25 60.333 25 25 60.333-25 60.333-60.333 25zM768 780.19q-35.333 0-60.333-25t-25-60.333 25-60.333 60.333-25 60.333 25 25 60.333-25 60.333-60.333 25z" />
<glyph unicode="&#xe088;" d="M128 780.19h213.333q24.333 0 37-21.333l329-576h188.667q17.667 0 30.167-12.5t12.5-30.167-12.5-30.167-30.167-12.5h-213.333q-24.333 0-37 21.333l-329 576h-188.667q-17.667 0-30.167 12.5t-12.5 30.167 12.5 30.167 30.167 12.5zM597.333 780.19h213.333q17.667 0 30.167-12.5t12.5-30.167-12.5-30.167-30.167-12.5h-213.333q-17.667 0-30.167 12.5t-12.5 30.167 12.5 30.167 30.167 12.5z" />
<glyph unicode="&#xe119;" d="M341.333 810.667h554.667q53 0 90.5-37.5t37.5-90.5v-512q0-53-37.5-90.5t-90.5-37.5h-554.667l-341.333 384zM896 725.334h-516.333l-265.333-298.667 265.333-298.667h516.333q17.667 0 30.167 12.5t12.5 30.167v512q0 17.667-12.5 30.167t-30.167 12.5zM810.667 554.667q0-18-12.333-30.333l-98-97.667 98-97.667q12.333-12.333 12.333-30.333 0-18.333-12.167-30.5t-30.5-12.167q-18 0-30.333 12.333l-97.667 98-97.667-98q-12.333-12.333-30.333-12.333-17.667 0-30.167 12.5t-12.5 30.167q0 17.333 12.333 30.333l98 97.667-98 97.667q-12.333 13-12.333 30.333 0 17.667 12.5 30.167t30.167 12.5q18 0 30.333-12.333l97.667-98 97.667 98q12.333 12.333 30.333 12.333 18.333 0 30.5-12.167t12.167-30.5z" />
<glyph unicode="&#xe128;" d="M170.667 908.19h298.667q17.667 0 30.167-12.5t12.5-30.167-12.5-30.167-30.167-12.5h-298.667q-17.667 0-30.167-12.5t-12.5-30.167v-682.667q0-17.667 12.5-30.167t30.167-12.5h682.667q17.667 0 30.167 12.5t12.5 30.167v298.667q0 17.667 12.5 30.167t30.167 12.5 30.167-12.5 12.5-30.167v-298.667q0-53-37.5-90.5t-90.5-37.5h-682.667q-53 0-90.5 37.5t-37.5 90.5v682.667q0 53 37.5 90.5t90.5 37.5zM682.667 908.19h256q17.667 0 30.167-12.5t12.5-30.167v-256q0-17.667-12.5-30.167t-30.167-12.5-30.167 12.5-12.5 30.167v153l-354-354q-12.333-12.333-30-12.333-18.333 0-30.5 12.167t-12.167 30.5q0 17.667 12.333 30l354 354h-153q-17.667 0-30.167 12.5t-12.5 30.167 12.5 30.167 30.167 12.5z" />
<glyph unicode="&#xe600;" d="M512 950.857c-282.752 0-512-229.248-512-512s229.248-512 512-512 512 229.248 512 512-229.248 512-512 512zM432.64 202.601l-235.584 235.616 90.496 90.496 145.056-145.12 307.744 307.744 90.496-90.496-398.208-398.24z" />
<glyph unicode="&#xe601;" d="M512 950.857c-282.752 0-512-229.248-512-512s229.248-512 512-512 512 229.248 512 512-229.248 512-512 512zM765.248 276.105l-90.496-90.496-162.752 162.752-162.752-162.752-90.496 90.496 162.752 162.752-162.752 162.752 90.496 90.496 162.752-162.752 162.752 162.752 90.496-90.496-162.752-162.752 162.752-162.752z" />
<glyph unicode="&#xe602;" d="M1024 375.849v128l-152.992 63.744c-4.256 12-8.736 23.616-14.24 35.008l61.76 153.76-90.528 90.496-152.384-62.752c-11.616 5.632-23.488 10.368-35.744 14.752l-64.864 152h-128l-63.264-151.488c-12.736-4.512-24.992-9.248-37.12-15.008l-152.128 61.12-90.496-90.496 62.016-150.752c-6.016-12.384-10.88-24.992-15.52-38.016l-150.496-64.352v-128l150.624-62.752c4.64-12.992 9.632-25.632 15.616-38.016l-60.864-151.744 90.496-90.496 151.136 62.24c12.128-5.76 24.512-10.368 37.248-14.752l64.736-151.488h128l63.36 152.256c12.128 4.512 24.128 9.248 35.616 14.752l153.504-61.504 90.496 90.496-63.008 152.736c5.376 11.488 9.76 23.136 14.016 35.008l153.024 65.248zM511.008 246.857c-105.984 0-192 86.016-192 192s86.016 192 192 192 192-86.016 192-192-86.016-192-192-192z" />
<glyph unicode="&#xe604;" d="M512 950.857c-282.752 0-512-229.248-512-512s229.248-512 512-512 512 229.248 512 512-229.248 512-512 512zM768 374.857h-192v-192h-128v192h-192v128h192v192h128v-192h192v-128z" />
<glyph unicode="&#xe605;" d="M512 950.857c-282.752 0-512-229.248-512-512s229.248-512 512-512 512 229.248 512 512-229.248 512-512 512zM768 374.857h-512v128h512v-128z" />
<glyph unicode="&#xe609;" d="M1024 54.857v384h-256c0 141.12 114.752 256 256 256v128c-211.744 0-384-172.256-384-384v-384h384zM384 54.857v384h-256c0 141.12 114.752 256 256 256v128c-211.744 0-384-172.256-384-384v-384h384z" />
<glyph unicode="&#xe60a;" d="M0 822.857v-384h256c0-141.12-114.752-256-256-256v-128c211.744 0 384 172.256 384 384v384h-384zM640 822.857v-384h256c0-141.12-114.752-256-256-256v-128c211.744 0 384 172.256 384 384v384h-384z" />
<glyph unicode="&#xe60b;" d="M948.992 875.849c-49.984 50.016-115.488 75.008-180.992 75.008s-131.008-24.992-180.992-75.008l-586.016-585.984-0.992-363.008h361.984l587.008 587.008c100 100 100 261.984 0 361.984zM308.992 54.857h-1.376c49.984 49.984 49.984 132 0 182.016-47.872 47.872-123.488 48.512-173.76 4.736l542.528 542.496 180.992-180.992-548.384-548.256z" />
<glyph unicode="&#xe60c;" d="M948.992 875.849c-99.872 100-262.112 100-361.984 0l-586.016-585.984-0.992-363.008h361.984l587.008 587.008c100 100 100 261.984 0 361.984zM307.616 54.857h-180.992v182.016c49.984 49.984 131.008 49.984 180.992 0s50.016-132.032 0-182.016zM856.128 604.361l-180.992 180.992c49.984 49.984 131.008 49.984 180.992 0s49.984-131.008 0-180.992z" />
<glyph unicode="&#xe60d;" d="M0-73.143h512v1024h-512v-1024zM320 822.857h128v-128h-128v128zM320 566.857h128v-128h-128v128zM320 310.857h128v-128h-128v128zM64 822.857h128v-128h-128v128zM64 566.857h128v-128h-128v128zM64 310.857h128v-128h-128v128zM576 630.857h448v-64h-448zM576-73.143h128v256h192v-256h128v576h-448z" />
<glyph unicode="&#xe610;" d="M0 822.857v-768h1024v768h-1024zM192 118.857h-128v128h128v-128zM192 374.857h-128v128h128v-128zM192 630.857h-128v128h128v-128zM768 118.857h-512v640h512v-640zM960 118.857h-128v128h128v-128zM960 374.857h-128v128h128v-128zM960 630.857h-128v128h128v-128zM384 630.857v-384l256 192z" />
<glyph unicode="&#xe611;" d="M964.73 772.053c-93.902 109.45-233.21 178.804-388.73 178.804-282.77 0-512-229.23-512-512s229.23-512 512-512c155.52 0 294.828 69.356 388.728 178.804l-324.728 333.196 324.73 333.196zM704 830.255c39.432 0 71.398-31.964 71.398-71.398 0-39.432-31.966-71.398-71.398-71.398s-71.398 31.966-71.398 71.398c0 39.432 31.966 71.398 71.398 71.398z" />
<glyph unicode="&#xe612;" d="M512 950.857c-176.732 0-320-143.268-320-320 0-320 320-704 320-704s320 384 320 704c0 176.732-143.27 320-320 320zM512 438.857c-106.040 0-192 85.96-192 192s85.96 192 192 192 192-85.96 192-192-85.96-192-192-192z" />
<glyph unicode="&#xe613;" d="M512 950.857c-176.732 0-320-143.268-320-320 0-320 320-704 320-704s320 384 320 704c0 176.732-143.27 320-320 320zM512 434.857c-108.248 0-196 87.752-196 196s87.752 196 196 196 196-87.752 196-196-87.752-196-196-196zM388 630.857c0 68.483 55.517 124 124 124s124-55.517 124-124c0-68.483-55.517-124-124-124s-124 55.517-124 124z" />
<glyph unicode="&#xe615;" d="M960 950.857l-448-128-448 128c0 0-4.5-51.698 0-128l448-140.090 448 140.090c4.498 76.302 0 128 0 128zM72.19 755.751c23.986-250.696 113.49-672.234 439.81-828.894 326.32 156.66 415.824 578.198 439.81 828.894l-439.81-165.358-439.81 165.358z" />
<glyph unicode="&#xe618;" d="M719.53 119.327c-12.286 0-24.568 4.686-33.942 14.058-18.744 18.744-18.744 49.136 0 67.882 131.006 131.006 131.006 344.17 0 475.176-18.744 18.746-18.744 49.138 0 67.882 18.744 18.742 49.138 18.744 67.882 0 81.594-81.592 126.53-190.076 126.53-305.468 0-115.39-44.936-223.876-126.53-305.47-9.372-9.374-21.656-14.060-33.94-14.060zM549.020 209.837c-12.286 0-24.568 4.686-33.942 14.058-18.746 18.746-18.746 49.136 0 67.882 81.1 81.1 81.1 213.058 0 294.156-18.746 18.746-18.746 49.138 0 67.882s49.136 18.744 67.882 0c118.53-118.53 118.53-311.392 0-429.922-9.372-9.37-21.656-14.056-33.94-14.056zM401.332 872.189c25.668 25.668 46.668 16.968 46.668-19.332v-828c0-36.3-21-44.998-46.668-19.33l-241.332 241.33h-160v384h160l241.332 241.332z" />
<glyph unicode="&#xe61a;" d="M128 374.857c0-35.348 28.654-64 64-64s64 28.652 64 64v229.492l530.746-530.748c24.992-24.992 65.516-24.992 90.508 0 12.498 12.498 18.746 28.878 18.746 45.256s-6.248 32.758-18.746 45.254l-530.746 530.746h229.492c35.346 0 64 28.654 64 64s-28.654 64-64 64h-448v-448z" />
<glyph unicode="&#xe61b;" d="M877.254 548.111l-320 320c-24.992 24.994-65.514 24.994-90.508 0l-320-320c-24.994-24.994-24.994-65.516 0-90.51 24.994-24.996 65.516-24.996 90.51 0l210.744 210.746v-613.49c0-35.346 28.654-64 64-64s64 28.654 64 64v613.49l210.746-210.746c12.496-12.496 28.876-18.744 45.254-18.744s32.758 6.248 45.254 18.746c24.994 24.994 24.994 65.514 0 90.508z" />
<glyph unicode="&#xe61c;" d="M832.020 822.857c-0.012 0-0.028 0-0.040 0h-383.98c-35.346 0-64-28.654-64-64s28.654-64 64-64h229.492l-530.746-530.746c-24.994-24.992-24.994-65.516 0-90.508 12.496-12.498 28.876-18.746 45.254-18.746s32.758 6.248 45.254 18.746l530.746 530.746v-229.492c0-35.346 28.654-64 64-64s64 28.654 64 64v448h-63.98z" />
<glyph unicode="&#xe61d;" d="M621.254 73.603l320 320c24.994 24.992 24.994 65.516 0 90.51l-320 320c-24.994 24.992-65.516 24.992-90.51 0-24.994-24.994-24.994-65.516 0-90.51l210.746-210.746h-613.49c-35.346 0-64-28.654-64-64s28.654-64 64-64h613.49l-210.746-210.746c-12.496-12.496-18.744-28.876-18.744-45.254s6.248-32.758 18.744-45.254c24.994-24.994 65.516-24.994 90.51 0z" />
<glyph unicode="&#xe61e;" d="M896 502.857c0 35.348-28.652 64-64 64-35.346 0-64-28.652-64-64v-229.492l-530.746 530.748c-24.992 24.992-65.516 24.992-90.508 0-12.498-12.498-18.746-28.878-18.746-45.256s6.248-32.758 18.746-45.254l530.746-530.746h-229.492c-35.346 0-64-28.654-64-64s28.654-64 64-64h448v448z" />
<glyph unicode="&#xe61f;" d="M146.746 329.603l320-320c24.992-24.994 65.516-24.994 90.51 0l320 320c24.992 24.994 24.992 65.516 0 90.51-24.994 24.994-65.516 24.994-90.51 0l-210.746-210.746v613.49c0 35.346-28.654 64-64 64s-64-28.654-64-64v-613.49l-210.746 210.746c-12.496 12.496-28.876 18.744-45.254 18.744s-32.758-6.248-45.254-18.744c-24.994-24.994-24.994-65.516 0-90.51z" />
<glyph unicode="&#xe620;" d="M576 54.857c35.348 0 64 28.652 64 64 0 35.346-28.652 64-64 64h-229.492l530.748 530.746c24.992 24.992 24.992 65.516 0 90.508-12.498 12.498-28.878 18.746-45.256 18.746s-32.758-6.248-45.254-18.746l-530.746-530.746v229.492c0 35.346-28.654 64-64 64s-64-28.654-64-64v-448h448z" />
<glyph unicode="&#xe621;" d="M402.746 804.111l-320-320c-24.994-24.992-24.994-65.516 0-90.508l320-320c24.994-24.992 65.516-24.992 90.51 0 24.996 24.992 24.996 65.516 0 90.508l-210.748 210.746h613.492c35.346 0 64 28.652 64 64 0 35.346-28.654 64-64 64h-613.492l210.746 210.746c12.496 12.496 18.746 28.876 18.746 45.254s-6.248 32.758-18.744 45.254c-24.996 24.994-65.516 24.994-90.51 0z" />
<glyph unicode="&#xe624;" d="M874.667 460.191h-64v170.667c0 47.147-38.187 85.333-85.333 85.333h-170.667v64c0 58.88-47.787 106.667-106.667 106.667s-106.667-47.787-106.667-106.667v-64h-170.667c-47.147 0-84.907-38.187-84.907-85.333l-0.213-162.133h63.787c63.573 0 115.2-51.627 115.2-115.2s-51.627-115.2-115.2-115.2h-63.787l-0.213-162.133c0-47.147 38.187-85.333 85.333-85.333h162.133v64c0 63.573 51.627 115.2 115.2 115.2s115.2-51.627 115.2-115.2v-64h162.133c47.147 0 85.333 38.187 85.333 85.333v170.667h64c58.88 0 106.667 47.787 106.667 106.667s-47.787 106.667-106.667 106.667z" />
<glyph unicode="&#xe628;" d="M972.8 112.64c0 0-102.4 498.33-551.68 498.33v197.99l-369.92-330.496 369.92-342.579v223.13c243.866 0 424.55-21.606 551.68-246.374z" />
<glyph unicode="&#xe629;" d="M602.88 359.014v-223.078l369.92 342.528-369.92 330.496v-197.939c-449.28 0-551.68-498.381-551.68-498.381 127.13 224.768 307.814 246.374 551.68 246.374z" />
<glyph unicode="&#xe62a;" d="M511.232 122.88v195.994l359.27-0.051v284.262h-359.27v195.635l-388.25-337.971z" />
<glyph unicode="&#xe62b;" d="M849.92 460.032l-195.994 0.051 0.051 359.219h-284.262v-359.27l-195.635 0.051 337.92-388.301z" />
<glyph unicode="&#xe62c;" d="M849.92 461.568l-195.994-0.051 0.051-359.219h-284.262v359.27l-195.635-0.051 337.971 388.301z" />
<glyph unicode="&#xe62d;" d="M512.768 798.72v-195.994l-359.27 0.051v-284.262h359.27v-195.635l388.25 337.971z" />
<glyph unicode="&#xe62e;" d="M331.52 641.097l-65.707 54.4-230.827-277.973 230.827-278.187 65.707 54.4-185.6 223.787 185.6 223.573zM298.667 374.857h85.333v85.333h-85.333v-85.333zM725.333 460.191h-85.333v-85.333h85.333v85.333zM469.333 374.857h85.333v85.333h-85.333v-85.333zM758.187 695.711l-65.707-54.4 185.6-223.787-185.6-223.573 65.707-54.4 230.827 277.973-230.827 278.187z" />
<glyph unicode="&#xe62f;" d="M0 822.857v-768h1024v768h-1024zM192 118.857h-128v128h128v-128zM192 374.857h-128v128h128v-128zM192 630.857h-128v128h128v-128zM768 118.857h-512v640h512v-640zM960 118.857h-128v128h128v-128zM960 374.857h-128v128h128v-128zM960 630.857h-128v128h128v-128zM384 630.857v-384l256 192z" />
<glyph unicode="&#xe633;" d="M426.667 630.857h-85.333v-170.667h-170.667v-85.333h170.667v-170.667h85.333v170.667h170.667v85.333h-170.667v170.667zM853.333 161.524h-85.333v453.333l-128-43.733v72.533l200.533 72.533h12.8v-554.667z" />
<glyph unicode="&#xe634;" d="M426.667 588.191v-341.333l213.333 170.667-213.333 170.667zM810.667 801.524h-597.333c-47.147 0-85.333-38.187-85.333-85.333v-597.333c0-47.147 38.187-85.333 85.333-85.333h597.333c47.147 0 85.333 38.187 85.333 85.333v597.333c0 47.147-38.187 85.333-85.333 85.333zM810.667 118.857h-597.333v597.333h597.333v-597.333z" />
<glyph unicode="&#xe635;" d="M682.667 724.724c42.24 0 76.8 34.347 76.8 76.8s-34.56 76.8-76.8 76.8c-42.453 0-76.8-34.347-76.8-76.8s34.347-76.8 76.8-76.8zM810.667 417.524c-117.76 0-213.333-95.573-213.333-213.333s95.573-213.333 213.333-213.333 213.333 95.573 213.333 213.333-95.573 213.333-213.333 213.333zM810.667 54.857c-82.56 0-149.333 66.773-149.333 149.333s66.773 149.333 149.333 149.333 149.333-66.773 149.333-149.333-66.773-149.333-149.333-149.333zM631.467 502.857h179.2v76.8h-136.533l-82.56 139.307c-12.587 21.333-35.84 35.627-62.507 35.627-20.053 0-38.187-8.107-51.2-21.333l-157.867-157.653c-13.227-13.227-21.333-31.36-21.333-51.413 0-26.88 14.293-49.493 36.267-62.72l142.933-86.613v-213.333h76.8v276.48l-96 71.253 98.987 99.413 73.813-105.813zM213.333 417.524c-117.76 0-213.333-95.573-213.333-213.333s95.573-213.333 213.333-213.333 213.333 95.573 213.333 213.333-95.573 213.333-213.333 213.333zM213.333 54.857c-82.56 0-149.333 66.773-149.333 149.333s66.773 149.333 149.333 149.333 149.333-66.773 149.333-149.333-66.773-149.333-149.333-149.333z" />
<glyph unicode="&#xe638;" d="M853.333 33.524c-59.307 0-118.613 20.053-170.667 56.533-104.107-72.96-237.227-72.96-341.333 0-52.053-36.48-111.36-56.533-170.667-56.533h-85.333v-85.333h85.333c58.667 0 116.907 14.72 170.667 42.453 107.52-55.253 233.813-55.253 341.333 0 53.76-27.52 112-42.453 170.667-42.453h85.333v85.333h-85.333zM168.32 118.857h2.347c68.267 0 129.067 37.547 170.667 85.333 41.6-47.787 102.4-85.333 170.667-85.333s129.067 37.547 170.667 85.333c41.813-47.787 102.187-85.333 170.667-85.333h2.347l80.853 285.227c3.627 10.88 2.56 22.827-2.56 33.067-5.333 10.24-14.507 17.92-25.6 21.12l-55.040 18.133v197.12c0 47.147-38.187 85.333-85.333 85.333h-128v128h-256v-128h-128c-47.147 0-85.333-38.187-85.333-85.333v-197.12l-54.827-17.92c-11.093-3.413-20.267-10.88-25.6-21.12s-6.187-22.187-2.56-33.067l80.64-285.44zM256 673.524h512v-169.173l-256 83.84-256-83.84v169.173z" />
<glyph unicode="&#xe639;" d="M480 884.695c-207.432 0-375.443-23.464-375.443-187.721v-445.837c0-90.81 73.682-164.256 164.256-164.256l-70.396-70.396v-23.464h563.164v23.464l-70.396 70.396c90.81 0 164.256 73.445 164.256 164.256v445.837c0 164.256-168.010 187.721-375.443 187.721zM268.813 180.741c-38.951 0-70.396 31.444-70.396 70.396s31.444 70.396 70.396 70.396 70.396-31.444 70.396-70.396-31.444-70.396-70.396-70.396zM433.069 462.322h-234.652v234.652h234.652v-234.652zM691.187 180.741c-38.951 0-70.396 31.444-70.396 70.396s31.444 70.396 70.396 70.396 70.396-31.444 70.396-70.396-31.444-70.396-70.396-70.396zM761.581 462.322h-234.652v234.652h234.652v-234.652z" />
<glyph unicode="&#xe63a;" d="M469.333 204.191h85.333v42.667h42.667c23.467 0 42.667 19.2 42.667 42.667v128c0 23.467-19.2 42.667-42.667 42.667h-128v42.667h170.667v85.333h-85.333v42.667h-85.333v-42.667h-42.667c-23.467 0-42.667-19.2-42.667-42.667v-128c0-23.467 19.2-42.667 42.667-42.667h128v-42.667h-170.667v-85.333h85.333v-42.667zM853.333 758.857h-682.667c-47.147 0-84.907-38.187-84.907-85.333l-0.427-512c0-47.147 38.187-85.333 85.333-85.333h682.667c47.147 0 85.333 38.187 85.333 85.333v512c0 47.147-38.187 85.333-85.333 85.333zM853.333 161.524h-682.667v512h682.667v-512z" />
<glyph unicode="&#xe63b;" d="M512-9.143c212.053 0 384 171.947 384 384-212.053 0-384-171.947-384-384zM239.147 492.191c0-58.88 47.787-106.667 106.667-106.667 22.4 0 43.307 7.040 60.373 18.773l-0.853-8.107c0-58.88 47.787-106.667 106.667-106.667s106.667 47.787 106.667 106.667l-0.853 8.107c17.28-11.947 37.973-18.773 60.373-18.773 58.88 0 106.667 47.787 106.667 106.667 0 42.453-24.96 78.933-61.013 96 35.84 17.067 61.013 53.547 61.013 96 0 58.88-47.787 106.667-106.667 106.667-22.4 0-43.307-7.040-60.373-18.773l0.853 8.107c0 58.88-47.787 106.667-106.667 106.667s-106.667-47.787-106.667-106.667l0.853-8.107c-17.28 11.947-37.973 18.773-60.373 18.773-58.88 0-106.667-47.787-106.667-106.667 0-42.453 24.96-78.933 61.013-96-36.053-17.067-61.013-53.547-61.013-96zM512 694.857c58.88 0 106.667-47.787 106.667-106.667s-47.787-106.667-106.667-106.667-106.667 47.787-106.667 106.667 47.787 106.667 106.667 106.667zM128 374.857c0-212.053 171.947-384 384-384 0 212.053-171.947 384-384 384z" />
<glyph unicode="&#xe649;" d="M898.36 886.857h-770.36v-128h-93.64c-17.6 0-34.36-12.528-34.36-30.128v-64c0-17.6 16.76-33.872 34.36-33.872h93.64v-64h-93.64c-17.6 0-34.36-12.528-34.36-30.128v-64c0-17.6 16.76-33.872 34.36-33.872h93.64v-64h-93.64c-17.6 0-34.36-12.528-34.36-30.128v-64c0-17.598 16.76-33.872 34.36-33.872h93.64v-64h-93.64c-17.6 0-34.36-12.528-34.36-30.128v-64c0-17.6 16.76-33.872 34.36-33.872h93.64v-128h770.36c35.348 0 61.64 30.526 61.64 65.872v832c0 35.346-26.292 62.128-61.64 62.128zM320-9.143h-128v64h34.36c17.6 0 29.64 16.272 29.64 33.872v64c0 17.602-12.042 30.128-29.64 30.128h-34.36v64h34.36c17.6 0 29.64 16.272 29.64 33.872v64c0 17.602-12.042 30.128-29.64 30.128h-34.36v64h34.36c17.6 0 29.64 16.272 29.64 33.872v64c0 17.602-12.042 30.128-29.64 30.128h-34.36v64h34.36c17.6 0 29.64 16.272 29.64 33.872v64c0 17.602-12.040 30.128-29.64 30.128h-34.36v64h128v-832z" />
<glyph unicode="&#xe64b;" d="M447.744 899.401l-192-197.376v-7.168h-128c-70.656 0-128-57.344-128-128v-256c0-70.72 57.344-128 128-128h128v-7.232l192-197.376c0 0 128-152.128 128 65.728v789.632c0 217.984-128 65.792-128 65.792zM447.744 246.857c0-104-64 0-64 0l-64 64h-128c-35.392 0-64 28.608-64 64v128c0 35.328 28.608 64 64 64h128l64 64c0.128 4.224 63.616 120.704 63.040 22.080-0.192-41.664 0.064-101.376 0.384-147.392 0.064-0.96 0.576-1.728 0.576-2.688v-256zM816.768 649.737l188.032 188.096c25.92 25.984 25.92 68.032 0 94.016-25.984 25.984-68.032 25.984-94.080 0l-188.032-188.096c-25.92-25.984-25.92-68.032 0-94.016 25.984-25.92 68.032-25.92 94.080 0zM816.768 227.849c-25.984 25.984-68.032 25.984-94.080 0-25.92-25.856-25.92-67.968 0-94.016l188.032-188.096c25.984-25.856 68.032-25.856 94.080 0 25.92 25.984 25.92 68.096 0 94.144l-188.032 187.968zM767.744 502.857c-35.392 0-64-28.672-64-64s28.608-64 64-64h192c35.392 0 64 28.608 64 64s-28.608 64-64 64h-192z" />
<glyph unicode="&#xe64d;" d="M512 182.857h256v128h-256v-128zM256 182.857h128v128h-128v-128zM256 374.857h128v128h-128v-128zM512 566.857h256v128h-256v-128zM896 950.857h-768c-70.656 0-128-57.344-128-128v-768c0-70.656 57.344-128 128-128h768c70.656 0 128 57.344 128 128v768c0 70.656-57.344 128-128 128zM896 118.857c0-35.392-28.608-64-64-64h-640c-35.328 0-64 28.608-64 64v640c0 35.328 28.672 64 64 64h640c35.392 0 64-28.672 64-64v-640zM512 374.857h256v128h-256v-128zM256 566.857h128v128h-128v-128z" />
<glyph unicode="&#xe64e;" d="M896-73.143h-768c-70.656 0-128 57.344-128 128v768c0 70.656 57.344 128 128 128h576l-128-128h-384c-35.328 0-64-28.672-64-64v-640c0-35.392 28.672-64 64-64h640c35.392 0 64 28.608 64 64v384l128 128v-576c0-70.656-57.344-128-128-128zM896 822.857l-64 64v64c0 0 192 1.984 192-192h-64l-64 64zM320 246.857v192h64l128-128v-64h-192zM896 694.857l-320-320-128 128 320 320 128-128z" />
<glyph unicode="&#xe650;" d="M544 950.857l-96-96 96-96-224-256h-224l176-176-272-360.616v-39.384h39.384l360.616 272 176-176v224l256 224 96-96 96 96-480 480zM448 406.857l-64 64 224 224 64-64-224-224z" />
<glyph unicode="&#xe651;" d="M320 566.857h128v-128h-128zM512 566.857h128v-128h-128zM704 566.857h128v-128h-128zM128 182.857h128v-128h-128zM320 182.857h128v-128h-128zM512 182.857h128v-128h-128zM320 374.857h128v-128h-128zM512 374.857h128v-128h-128zM704 374.857h128v-128h-128zM128 374.857h128v-128h-128zM832 950.857v-64h-128v64h-448v-64h-128v64h-128v-1024h960v1024h-128zM896-9.143h-832v704h832v-704z" />
<glyph unicode="&#xe653;" d="M896 822.857h-96v-32c0-35.29-28.71-64-64-64s-64 28.71-64 64v32h-320v-32c0-35.29-28.71-64-64-64s-64 28.71-64 64v32h-96c-35.2 0-64-28.8-64-64v-704c0-35.2 28.8-64 64-64h768c35.2 0 64 28.8 64 64v704c0 35.2-28.8 64-64 64zM896 54.973c-0.034-0.040-0.076-0.082-0.116-0.116h-767.77c-0.040 0.034-0.082 0.076-0.114 0.116v575.884h768v-575.884zM288 758.857c17.672 0 32 14.328 32 32v128c0 17.672-14.328 32-32 32s-32-14.328-32-32v-128c0-17.672 14.328-32 32-32zM736 758.857c17.672 0 32 14.328 32 32v128c0 17.672-14.328 32-32 32s-32-14.328-32-32v-128c0-17.672 14.328-32 32-32zM576 566.857h-320v-64h256v-128h-256v-64h256v-128h-256v-64h320zM704 118.857h64v448h-128v-64h64zM872-33.143h-720c-35.2 0-64 20.8-64 56v-32c0-35.2 28.8-64 64-64h720c35.2 0 64 28.8 64 64v32c0-35.2-28.8-56-64-56z" />
<glyph unicode="&#xe656;" d="M384 822.857c0 70.692 57.308 128 128 128s128-57.308 128-128c0-70.692-57.308-128-128-128s-128 57.308-128 128zM655.53 710.387c0 70.692 57.308 128 128 128s128-57.308 128-128c0-70.692-57.308-128-128-128s-128 57.308-128 128zM832 438.857c0 35.346 28.654 64 64 64s64-28.654 64-64c0-35.346-28.654-64-64-64s-64 28.654-64 64zM719.53 167.327c0 35.346 28.654 64 64 64s64-28.654 64-64c0-35.346-28.654-64-64-64s-64 28.654-64 64zM448.002 54.857c0 0 0 0 0 0 0 35.346 28.654 64 64 64s64-28.654 64-64c0 0 0 0 0 0 0-35.346-28.654-64-64-64s-64 28.654-64 64zM176.472 167.327c0 0 0 0 0 0 0 35.346 28.654 64 64 64s64-28.654 64-64c0 0 0 0 0 0 0-35.346-28.654-64-64-64s-64 28.654-64 64zM144.472 710.387c0 0 0 0 0 0 0 53.019 42.981 96 96 96s96-42.981 96-96c0 0 0 0 0 0 0-53.019-42.981-96-96-96s-96 42.981-96 96zM56 438.857c0 39.765 32.235 72 72 72s72-32.235 72-72c0-39.765-32.235-72-72-72s-72 32.235-72 72z" />
<glyph unicode="&#xe657;" d="M704 950.857c-176.73 0-320-143.268-320-320 0-20.026 1.858-39.616 5.376-58.624l-389.376-389.376v-192c0-35.346 28.654-64 64-64h64v64h128v128h128v128h128l83.042 83.042c34.010-12.316 70.696-19.042 108.958-19.042 176.73 0 320 143.268 320 320s-143.27 320-320 320zM799.874 630.731c-53.020 0-96 42.98-96 96s42.98 96 96 96 96-42.98 96-96-42.98-96-96-96z" />
<glyph unicode="&#xe658;" d="M1024 630.857l-512 256-512-256 512-256 512 256zM512 801.887l342.058-171.030-342.058-171.030-342.058 171.030 342.058 171.030zM921.444 490.135l102.556-51.278-512-256-512 256 102.556 51.278 409.444-204.722zM921.444 298.135l102.556-51.278-512-256-512 256 102.556 51.278 409.444-204.722z" />
<glyph unicode="&#xe659;" d="M832 502.857h-64v192c0 141.384-114.616 256-256 256s-256-114.616-256-256v-192h-64c-35.2 0-64-28.8-64-64v-448c0-35.2 28.8-64 64-64h640c35.2 0 64 28.8 64 64v448c0 35.2-28.8 64-64 64zM512 118.857c-35.346 0-64 28.654-64 64s28.654 64 64 64 64-28.654 64-64-28.654-64-64-64zM640 502.857h-256v192c0 70.58 57.42 128 128 128s128-57.42 128-128v-192z" />
<glyph unicode="&#xe65c;" d="M832 630.857h-64v96c0 88.366-171.922 160-384 160s-384-71.634-384-160v-576c0-88.366 171.922-160 384-160s384 71.634 384 160v96h64c105.6 0 192 86.4 192 192s-86.4 192-192 192zM176.056 761.255c57.942 19.090 131.79 29.602 207.944 29.602s150.004-10.512 207.944-29.602c36.994-12.188 59.408-25.246 71.41-34.398-12.002-9.152-34.416-22.208-71.41-34.398-57.94-19.090-131.79-29.602-207.944-29.602s-150.002 10.512-207.944 29.602c-36.994 12.19-59.408 25.246-71.41 34.398 12.002 9.152 34.416 22.208 71.41 34.398zM904.364 382.493c-8.828-8.828-27.89-23.636-56.364-23.636h-80v160h80c28.474 0 47.536-14.81 56.364-23.638s23.636-27.888 23.636-56.362-14.808-47.536-23.636-56.364z" />
<glyph unicode="&#xe65e;" d="M321.008-73.143c-68.246 142.008-31.902 223.378 20.55 300.044 57.44 83.956 72.244 167.066 72.244 167.066s45.154-58.7 27.092-150.508c79.772 88.8 94.824 230.28 82.782 284.464 180.314-126.012 257.376-398.856 153.522-601.066 552.372 312.532 137.398 780.172 65.154 832.85 24.082-52.676 28.648-141.85-20-185.126-82.352 312.276-285.972 376.276-285.972 376.276 24.082-161.044-87.296-337.144-194.696-468.73-3.774 64.216-7.782 108.528-41.55 169.98-7.58-116.656-96.732-211.748-120.874-328.628-32.702-158.286 24.496-274.18 241.748-396.622z" />
<glyph unicode="&#xe660;" d="M512 792.133l-344.834-737.276h689.668l-344.834 737.276zM512 950.857v0c22.070 0 44.14-14.882 60.884-44.648l437.072-871.112c33.49-59.532 5-108.24-63.302-108.24h-869.308c-68.304 0-96.79 48.708-63.304 108.24l437.074 871.112c16.744 29.766 38.814 44.648 60.884 44.648zM448 182.857c0 35.346 28.654 64 64 64s64-28.654 64-64c0-35.346-28.654-64-64-64s-64 28.654-64 64zM512 566.857c35.346 0 64-28.654 64-64l-20-192h-88l-20 192c0 35.346 28.654 64 64 64z" />
<glyph unicode="&#xe661;" d="M953.396 876.215l-4.028 4.042c-94.148 94.134-248.194 94.134-342.326 0l-218.106-218.136c-94.134-94.132-94.134-248.176 0-342.31l4.026-4.026c7.832-7.848 16.146-14.924 24.736-21.458l79.848 79.85c-9.302 5.494-18.126 12.072-26.116 20.060l-4.042 4.042c-51.114 51.098-51.114 134.272 0 185.39l218.128 218.112c51.116 51.118 134.274 51.118 185.386 0l4.042-4.024c51.1-51.116 51.1-134.292 0-185.39l-98.686-98.686c17.132-42.308 25.248-87.4 24.538-132.386l152.604 152.604c94.134 94.136 94.134 248.178-0.004 342.316zM631.042 561.923c-7.832 7.832-16.146 14.922-24.736 21.44l-79.848-79.832c9.304-5.496 18.126-12.074 26.116-20.062l4.042-4.040c51.116-51.116 51.116-134.272 0-185.388l-218.13-218.134c-51.118-51.102-134.276-51.102-185.388 0l-4.042 4.042c-51.098 51.12-51.098 134.276 0 185.388l98.688 98.686c-17.134 42.306-25.246 87.402-24.538 132.386l-152.602-152.598c-94.136-94.132-94.136-248.178 0-342.324l4.026-4.032c94.152-94.128 248.192-94.128 342.328 0l218.11 218.118c94.134 94.132 94.134 248.194 0 342.326l-4.026 4.024z" />
<glyph unicode="&#xe665;" d="M1024 553.807l-353.78 51.408-158.22 320.582-158.216-320.582-353.784-51.408 256-249.538-60.432-352.352 316.432 166.358 316.432-166.358-60.434 352.352 256.002 249.538zM512 197.359l-223.462-117.48 42.676 248.83-180.786 176.222 249.84 36.304 111.732 226.396 111.736-226.396 249.836-36.304-180.788-176.222 42.678-248.83-223.462 117.48z" />
<glyph unicode="&#xe666;" d="M1024 553.807l-353.78 51.408-158.22 320.582-158.216-320.582-353.784-51.408 256-249.538-60.432-352.352 316.432 166.358 316.432-166.358-60.434 352.352 256.002 249.538z" />
<glyph unicode="&#xe669;" d="M896 182.857h128l-160-192-160 192h128v512h-128l160 192 160-192h-128zM640 886.857v-256l-64 128h-192v-704h128v-64h-384v64h128v704h-192l-64-128v256z" />
<glyph unicode="&#xe66a;" d="M192 886.857v-768h768v768h-768zM896 182.857h-640v640h640v-640zM128 54.857v640l-64 64v-768h768l-64 64zM429.254 265.603l192 192 146.746-146.746v384h-384l146.746-146.746-192-192z" />
<glyph unicode="&#xe66b;" d="M832 950.857h-128v-128h128v128zM960 950.857h-64v-192h-256v192h-256v-192h-256v192h-64c-35.376 0-64-28.656-64-64v-896c0-35.376 28.624-64 64-64h896c35.376 0 64 28.624 64 64v896c0 35.344-28.624 64-64 64zM896 54.857h-768v576h768v-576zM320 950.857h-128v-128h128v128zM576 502.857h-128v-128h128v128zM768 502.857h-128v-128h128v128zM384 310.857h-128v-128h128v128zM384 502.857h-128v-128h128v128zM576 310.857h-128v-128h128v128zM768 310.857h-128v-128h128v128z" />
<glyph unicode="&#xe66d;" d="M512 950.857c-282.77 0-512-229.23-512-512s229.23-512 512-512 512 229.23 512 512-229.23 512-512 512zM512 22.857c-229.75 0-416 186.25-416 416s186.25 416 416 416 416-186.25 416-416-186.25-416-416-416zM448 694.857h128v-128h-128zM640 182.857h-256v64h64v192h-64v64h192v-256h64z" />
<glyph unicode="&#xe66e;" d="M512 950.857c-282.77 0-512-229.23-512-512s229.23-512 512-512 512 229.23 512 512-229.23 512-512 512zM448 758.857h128v-128h-128v128zM640 118.857h-256v64h64v256h-64v64h192v-320h64v-64z" />
<glyph unicode="&#xe66f;" d="M960 950.857h-512c-35.376 0-64-28.624-64-64v-512c0-35.376 28.624-64 64-64h512c35.376 0 64 28.624 64 64v512c0 35.376-28.624 64-64 64zM896 438.857h-384v384h384v-384zM512 54.857h-384v384h128v128h-192c-35.376 0-64-28.624-64-64v-512c0-35.376 28.624-64 64-64h512c35.376 0 64 28.624 64 64v192h-128v-128z" />
<glyph unicode="&#xe672;" d="M736.736 22.665v64.928h-32.416v-64.928h-32.448v64.928h-32.512v-64.928h-30.432v97.376h-32.448v-97.376h-32.448v64.928h-32.448v-64.928h-30.432v64.928h-32.448v-64.928h-32.48v97.376h-32.448v-97.376h-32.448v64.928h-30.368v-64.928h-32.448v64.928h-32.48v-64.928h-32.416v97.376h-30.432v-97.376h-97.344v800.352l800.352-800.352h-159.456zM223.616 516.169v-363.68h363.648l-363.648 363.68z" />
<glyph unicode="&#xe673;" d="M512 822.857c-247.424 0-448-200.576-448-448s200.576-448 448-448 448 200.576 448 448-200.576 448-448 448zM512 14.857c-198.824 0-360 161.178-360 360 0 198.824 161.176 360 360 360 198.822 0 360-161.176 360-360 0-198.822-161.178-360-360-360zM934.784 663.683c16.042 28.052 25.216 60.542 25.216 95.174 0 106.040-85.96 192-192 192-61.818 0-116.802-29.222-151.92-74.596 131.884-27.236 245.206-105.198 318.704-212.578zM407.92 876.261c-35.116 45.374-90.102 74.596-151.92 74.596-106.040 0-192-85.96-192-192 0-34.632 9.174-67.122 25.216-95.174 73.5 107.38 186.822 185.342 318.704 212.578zM448 630.857h64v-320h-64v320zM512 374.857h192v-64h-192v64z" />
<glyph unicode="&#xe674;" d="M981.188 662.749c-88.808 12.768-183.382 22.016-282.076 27.22l164.888 164.888-64 64-224.558-224.556c-21.006 0.368-42.156 0.556-63.442 0.556v0l-256 256-64-64 194.196-194.196c-120.922-4.242-236.338-14.524-343.386-29.912-27.532-107.726-42.81-226.752-42.81-351.892s15.278-244.166 42.804-351.89c143.642-20.652 302.34-32.11 469.196-32.11s325.55 11.458 469.188 32.11c27.534 107.724 42.812 226.75 42.812 351.89s-15.278 244.166-42.812 351.892zM863.892 76.263c-107.73-13.766-226.75-21.406-351.892-21.406s-244.166 7.64-351.892 21.406c-20.648 71.816-32.108 151.166-32.108 234.594 0 83.43 11.458 162.78 32.108 234.596 107.726 13.766 226.75 21.404 351.892 21.404 125.136 0 244.162-7.638 351.886-21.404 20.656-71.816 32.114-151.166 32.114-234.596 0-83.428-11.458-162.778-32.108-234.594z" />
<glyph unicode="&#xe67b;" d="M448 156.347l-205.254 237.254 58.508 58.51 146.746-114.744 274.744 242.744 58.512-58.508zM831.772 822.857c0.078-0.066 0.162-0.15 0.228-0.23v-767.542c-0.066-0.078-0.15-0.162-0.228-0.228h-639.544c-0.080 0.066-0.162 0.15-0.228 0.228v767.544c0.066 0.080 0.15 0.162 0.23 0.228h-128.23v-768c0-70.4 57.6-128 128-128h640c70.4 0 128 57.6 128 128v768h-128.228zM640 822.857v64c0 35.346-28.654 64-64 64h-128c-35.346 0-64-28.654-64-64v-64h-128v-128h512v128h-128zM576 822.857h-128v64h128v-64z" />
<glyph unicode="&#xe67d;" d="M716.749 687.177l0.051-471.040-409.6 235.52z" />
<glyph unicode="&#xe67f;" d="M747.52 656.406l-471.040 0.051 235.52-409.6z" />
<glyph unicode="&#xe680;" d="M276.48 246.857h471.040l-235.571 409.6z" />
<glyph unicode="&#xe681;" d="M307.251 687.177l-0.051-471.040 409.6 235.52z" />
<glyph unicode="&#xe683;" d="M585.574 732.438c-21.402-20.89-230.502-240.435-230.502-240.435-11.418-11.162-17.101-25.754-17.101-40.346s5.683-29.184 17.101-40.346c0 0 209.101-219.546 230.502-240.384 21.402-20.89 59.904-22.323 82.739 0 22.784 22.272 24.576 53.35-0.051 80.64l-191.846 200.090 191.846 200.090c24.627 27.341 22.835 58.419 0.051 80.691-22.886 22.272-61.389 20.89-82.739 0z" />
<glyph unicode="&#xe684;" d="M792.73 525.231c-20.838-21.402-240.384-230.554-240.384-230.554-11.162-11.418-25.754-17.101-40.346-17.101-14.643 0-29.235 5.683-40.346 17.101 0 0-219.546 209.152-240.435 230.554-20.838 21.402-22.272 59.853 0 82.739 22.323 22.835 53.402 24.627 80.691 0l200.090-191.898 200.038 191.846c27.341 24.627 58.47 22.835 80.691 0 22.323-22.835 20.941-61.338 0-82.688z" />
<glyph unicode="&#xe686;" d="M792.73 378.083c-20.838 21.402-240.384 230.502-240.384 230.502-11.162 11.418-25.754 17.152-40.346 17.152-14.643 0-29.235-5.734-40.346-17.152 0 0-219.546-209.101-240.435-230.502-20.838-21.402-22.272-59.904 0-82.739 22.323-22.784 53.402-24.627 80.691 0l200.090 191.846 200.038-191.846c27.341-24.627 58.47-22.784 80.691 0 22.323 22.886 20.941 61.389 0 82.739z" />
<glyph unicode="&#xe687;" d="M438.426 732.438c21.402-20.89 230.502-240.435 230.502-240.435 11.469-11.162 17.152-25.754 17.152-40.346s-5.683-29.184-17.152-40.346c0 0-209.101-219.546-230.502-240.384-21.402-20.89-59.853-22.323-82.739 0-22.835 22.272-24.627 53.35 0 80.64l191.898 200.090-191.846 200.090c-24.627 27.341-22.835 58.419 0 80.691s61.338 20.89 82.688 0z" />
<glyph unicode="&#xe688;" d="M634.829 276.655c13.722-13.875 13.722-36.301 0-50.125-13.722-13.875-35.891-13.875-49.613 0l-196.096 200.038c-13.722 13.875-13.722 36.301 0 50.125l196.096 200.090c13.722 13.875 35.891 13.875 49.613 0s13.722-36.25 0-50.125l-160.768-175.002 160.768-175.002z" />
<glyph unicode="&#xe689;" d="M687.002 574.486c13.875 13.722 36.301 13.722 50.125 0 13.875-13.722 13.875-35.891 0-49.613l-200.038-196.096c-13.875-13.722-36.301-13.722-50.125 0l-200.090 196.096c-13.824 13.722-13.824 35.891 0 49.613 13.875 13.722 36.25 13.722 50.125 0l175.002-160.768 175.002 160.768z" />
<glyph unicode="&#xe68a;" d="M336.947 328.828c-13.875-13.722-36.25-13.722-50.125 0-13.824 13.722-13.875 35.891 0 49.664l200.090 195.994c13.875 13.722 36.301 13.722 50.125 0l200.090-196.045c13.875-13.773 13.875-35.942 0-49.664s-36.25-13.722-50.125 0l-175.053 160.819-175.002-160.768z" />
<glyph unicode="&#xe68b;" d="M389.171 276.655c-13.722-13.875-13.722-36.301 0-50.125 13.67-13.875 35.891-13.875 49.613 0l196.096 200.038c13.722 13.875 13.722 36.301 0 50.125l-196.096 200.090c-13.722 13.875-35.891 13.875-49.613 0s-13.722-36.25-0.051-50.074l160.819-175.053-160.768-175.002z" />
<glyph unicode="&#xe68c;" d="M737.229 71.855c13.722-13.875 13.722-36.25 0-50.125s-35.891-13.875-49.613 0l-400.896 404.838c-13.722 13.875-13.722 36.301 0 50.125l400.896 404.89c13.722 13.875 35.891 13.875 49.613 0s13.722-36.25 0-50.125l-365.568-379.802 365.568-379.802z" />
<glyph unicode="&#xe68d;" d="M132.198 676.886c-13.875 13.722-36.301 13.722-50.125 0-13.824-13.67-13.824-35.891 0-49.613l404.89-400.896c13.875-13.722 36.25-13.722 50.125 0l404.89 400.896c13.824 13.722 13.875 35.891 0 49.613s-36.352 13.722-50.125 0.051l-379.853-365.619-379.802 365.568z" />
<glyph unicode="&#xe68e;" d="M891.802 226.428c13.875-13.722 36.301-13.722 50.125 0 13.875 13.722 13.875 35.891 0 49.613l-404.89 400.896c-13.824 13.722-36.25 13.722-50.074 0l-404.89-400.896c-13.824-13.722-13.875-35.891 0-49.613s36.25-13.722 50.125 0l379.802 365.619 379.802-365.619z" />
<glyph unicode="&#xe68f;" d="M286.704 71.855c-13.722-13.875-13.722-36.25 0-50.125s35.891-13.875 49.613 0l400.896 404.838c13.722 13.875 13.722 36.301 0 50.125l-400.896 404.89c-13.722 13.875-35.891 13.875-49.613 0s-13.722-36.25 0-50.125l365.568-379.802-365.568-379.802z" />
<glyph unicode="&#xe690;" d="M896 182.857c70.656 0 128 57.344 128 128v512c0 70.656-57.344 128-128 128h-768c-70.656 0-128-57.344-128-128v-512c0-70.656 57.344-128 128-128h320v-128h-384c-35.392 0-64-28.608-64-64s28.608-64 64-64h896c35.392 0 64 28.608 64 64s-28.608 64-64 64h-384v128h320zM192 310.857c-35.392 0-64 28.608-64 64v384c0 35.328 28.608 64 64 64h640c35.392 0 64-28.672 64-64v-384c0-35.392-28.608-64-64-64h-640z" />
<glyph unicode="&#xe692;" d="M976 182.857h-16v208c0 61.756-50.242 112-112 112h-272v128h16c26.4 0 48 21.6 48 48v160c0 26.4-21.6 48-48 48h-160c-26.4 0-48-21.6-48-48v-160c0-26.4 21.6-48 48-48h16v-128h-272c-61.756 0-112-50.244-112-112v-208h-16c-26.4 0-48-21.6-48-48v-160c0-26.4 21.6-48 48-48h160c26.4 0 48 21.6 48 48v160c0 26.4-21.6 48-48 48h-16v192h256v-192h-16c-26.4 0-48-21.6-48-48v-160c0-26.4 21.6-48 48-48h160c26.4 0 48 21.6 48 48v160c0 26.4-21.6 48-48 48h-16v192h256v-192h-16c-26.4 0-48-21.6-48-48v-160c0-26.4 21.6-48 48-48h160c26.4 0 48 21.6 48 48v160c0 26.4-21.6 48-48 48zM192-9.143h-128v128h128v-128zM576-9.143h-128v128h128v-128zM448 694.857v128h128v-128h-128zM960-9.143h-128v128h128v-128z" />
<glyph unicode="&#xe6a0;" d="M239.701 353.524h117.931l-58.965 117.931zM896 353.524l102.4 136.533c29.269 39.040 33.92 90.411 12.117 134.059-21.845 43.648-65.707 70.741-114.517 70.741h-256c-70.571 0-128-57.429-128-128 0-32.853 12.587-62.677 33.024-85.333h-11.691c-15.701 0-30.208-4.565-42.88-11.989l-77.269 154.581c-21.248 42.453-65.152 68.864-114.517 68.864s-93.269-26.411-114.517-68.864l-170.667-341.333c-15.275-30.592-17.749-65.28-6.955-97.749s33.621-58.709 64.171-74.027c17.664-8.832 37.504-13.483 57.259-13.483 48.768 0 92.629 27.093 114.517 70.699l7.296 14.635h97.749l7.296-14.592c21.845-43.648 65.707-70.741 114.517-70.741 19.797 0 39.595 4.651 57.259 13.483 10.368 5.205 19.413 12.032 27.819 19.541 23.040-20.821 53.163-33.024 85.589-33.024h256c70.571 0 128 57.429 128 128s-57.429 128-128 128zM488.405 187.337c-6.101-3.029-12.629-4.48-19.029-4.48-15.701 0-30.763 8.661-38.229 23.595l-30.848 61.739h-203.264l-30.891-61.739c-7.467-14.933-22.528-23.595-38.187-23.595-6.4 0-12.928 1.451-19.029 4.523-21.077 10.539-29.611 36.181-19.072 57.259l170.667 341.333c7.211 14.421 22.699 21.675 38.144 21.675s30.933-7.211 38.187-21.675l170.667-341.333c10.539-21.12 1.963-46.72-19.115-57.301zM533.333 353.524c-23.552 0-42.667 19.115-42.667 42.667s19.115 42.667 42.667 42.667h42.667c23.552 0 42.667-19.115 42.667-42.667s-19.115-42.667-42.667-42.667h-42.667zM896 182.857h-256c-16.171 0-30.933 9.131-38.187 23.595s-5.632 31.744 4.053 44.672l204.8 273.067h-170.667c-23.552 0-42.667 19.115-42.667 42.667s19.115 42.667 42.667 42.667h256c16.171 0 30.933-9.131 38.187-23.595s5.632-31.744-4.053-44.672l-204.8-273.067h170.667c23.552 0 42.667-19.115 42.667-42.667s-19.115-42.667-42.667-42.667z" />
<glyph unicode="&#xe6f9;" d="M213.333 388.51v-170.667l298.667-162.987 298.667 162.987v170.667l-298.667-162.987-298.667 162.987zM512 822.857l-469.333-256 469.333-256 384 209.493v-294.827h85.333v341.333l-469.333 256z" />
<glyph unicode="&#xe6fa;" d="M810.667 822.857h-597.333c-47.36 0-85.333-38.4-85.333-85.333v-597.333c0-46.933 37.973-85.333 85.333-85.333h597.333c47.36 0 85.333 38.4 85.333 85.333v597.333c0 46.933-37.973 85.333-85.333 85.333zM426.667 225.524l-213.333 213.333 60.16 60.16 153.173-152.747 323.84 323.84 60.16-60.587-384-384z" />
<glyph unicode="&#xe6fb;" d="M810.667 737.524v-597.333h-597.333v597.333h597.333zM810.667 822.857h-597.333c-46.933 0-85.333-38.4-85.333-85.333v-597.333c0-46.933 38.4-85.333 85.333-85.333h597.333c46.933 0 85.333 38.4 85.333 85.333v597.333c0 46.933-38.4 85.333-85.333 85.333z" />
<glyph unicode="&#xe6fc;" d="M512 865.524c-235.52 0-426.667-191.147-426.667-426.667s191.147-426.667 426.667-426.667 426.667 191.147 426.667 426.667-191.147 426.667-426.667 426.667zM512 97.524c-188.587 0-341.333 152.747-341.333 341.333s152.747 341.333 341.333 341.333 341.333-152.747 341.333-341.333-152.747-341.333-341.333-341.333z" />
<glyph unicode="&#xe6fd;" d="M512 652.19c-117.76 0-213.333-95.573-213.333-213.333s95.573-213.333 213.333-213.333 213.333 95.573 213.333 213.333-95.573 213.333-213.333 213.333zM512 865.524c-235.52 0-426.667-191.147-426.667-426.667s191.147-426.667 426.667-426.667 426.667 191.147 426.667 426.667-191.147 426.667-426.667 426.667zM512 97.524c-188.587 0-341.333 152.747-341.333 341.333s152.747 341.333 341.333 341.333 341.333-152.747 341.333-341.333-152.747-341.333-341.333-341.333z" />
<glyph unicode="&#xe72f;" d="M960 86.857l-192 160v-160c0-35.328-28.672-64-64-64h-640c-35.328 0-64 28.672-64 64v544c0 35.328 28.672 64 64 64h246.336l-94.656 128h-183.68c-17.664 0-32 14.304-32 32s14.336 32 32 32h192c17.664 0 32-14.304 32-32l130.304-160h317.696c35.328 0 64-28.672 64-64v-160l192 192c35.328 0 64-28.672 64-64v-448c0-35.328-24.672-64-64-64zM672 630.857h-192c-17.696 0-32-14.304-32-32s14.304-32 32-32h192c17.696 0 32 14.304 32 32s-14.304 32-32 32z" />
<glyph unicode="&#xe730;" d="M1024 360.413l-512 397.426-512-397.428v162.038l512 397.426 512-397.428zM896 374.857v-384h-256v256h-256v-256h-256v384l384 288z" />
<glyph unicode="&#xe733;" d="M896 694.857v128h-896v-704c0-35.346 28.654-64 64-64h864c53.022 0 96 42.978 96 96v544h-128zM832 118.857h-768v640h768v-640zM128 630.857h640v-64h-640zM512 502.857h256v-64h-256zM512 374.857h256v-64h-256zM512 246.857h192v-64h-192zM128 502.857h320v-320h-320z" />
<glyph unicode="&#xe735;" d="M0 822.857v-832h1024v832h-1024zM960 54.857h-896v704h896v-704zM704 598.857c0 53.019 42.981 96 96 96s96-42.981 96-96c0-53.019-42.981-96-96-96s-96 42.981-96 96zM896 118.857h-768l192 512 256-320 128 96z" />
<glyph unicode="&#xe736;" d="M128 694.857v-640h896v640h-896zM960 161.523l-128 213.334-145.066-120.888-110.934 184.888-384-320v512h768v-469.334zM256 470.857c0 53.019 42.981 96 96 96s96-42.981 96-96c0-53.019-42.981-96-96-96s-96 42.981-96 96zM896 822.857h-896v-640h64v576h832z" />
<glyph unicode="&#xe73b;" d="M927.812 950.857h-288.562c-52.906 0-126.796-30.606-164.204-68.014l-446.99-446.99c-37.408-37.408-37.408-98.624 0-136.032l344.91-344.906c37.408-37.41 98.622-37.41 136.030 0l446.99 446.988c37.408 37.41 68.014 111.302 68.014 164.204v288.562c0 52.904-43.286 96.188-96.188 96.188zM800 630.857c-53.020 0-96 42.98-96 96s42.98 96 96 96 96-42.98 96-96-42.98-96-96-96z" />
<glyph unicode="&#xe73c;" d="M992 886.857h-224c-52.8 0-126.546-30.546-163.882-67.882l-376.236-376.236c-37.334-37.334-37.334-98.428 0-135.764l280.236-280.234c37.334-37.336 98.428-37.336 135.764 0l376.234 376.234c37.338 37.336 67.884 111.082 67.884 163.882v224c0 52.8-43.2 96-96 96zM864 566.857c-53.020 0-96 42.98-96 96s42.98 96 96 96 96-42.98 96-96-42.98-96-96-96zM86.626 352.231l342.378-342.378c-36.264-19.16-82.462-13.538-112.886 16.888l-280.236 280.234c-37.334 37.336-37.334 98.43 0 135.764l376.236 376.236c37.336 37.336 111.082 67.882 163.882 67.882l-489.374-489.372c-12.444-12.446-12.444-32.808 0-45.254z" horiz-adv-x="1088" />
<glyph unicode="&#xe742;" d="M480 886.857c-265.096 0-480-214.904-480-480 0-265.098 214.904-480 480-480 265.098 0 480 214.902 480 480 0 265.096-214.902 480-480 480zM480 22.857c-212.078 0-384 171.922-384 384s171.922 384 384 384c212.078 0 384-171.922 384-384s-171.922-384-384-384zM512 438.857v128h128v64h-128v64h-64v-64h-128v-256h128v-128h-128v-64h128v-64h64v64h128.002l-0.002 256h-128zM448 438.857h-64v128h64v-128zM576.002 246.857h-64.002v128h64.002v-128z" />
<glyph unicode="&#xe743;" d="M384 886.857h-320c-35.2 0-64-28.8-64-64v-320c0-35.2 28.796-64 64-64h320c35.2 0 64 28.8 64 64v320c0 35.2-28.8 64-64 64zM384 630.857h-320v64h320v-64zM896 886.857h-320c-35.204 0-64-28.8-64-64v-832c0-35.2 28.796-64 64-64h320c35.2 0 64 28.8 64 64v832c0 35.2-28.8 64-64 64zM896 310.857h-320v64h320v-64zM896 502.857h-320v64h320v-64zM384 374.857h-320c-35.2 0-64-28.8-64-64v-320c0-35.2 28.796-64 64-64h320c35.2 0 64 28.8 64 64v320c0 35.2-28.8 64-64 64zM384 118.857h-128v-128h-64v128h-128v64h128v128h64v-128h128v-64z" />
<glyph unicode="&#xe744;" d="M704 310.857c-64-64-64-128-128-128s-128 64-192 128-128 128-128 192 64 64 128 128-128 256-192 256-192-192-192-192c0-128 131.5-387.5 256-512s384-256 512-256c0 0 192 128 192 192s-192 256-256 192z" />
<glyph unicode="&#xe745;" d="M1017.378 374.863c8.004-55.482 13.216-131.392-11.664-160.446-41.142-48.044-301.712-48.044-301.712 48.042 0 48.398 42.856 80.134 1.712 128.178-40.472 47.262-113.026 48.030-193.714 48.042-80.686-0.012-153.242-0.78-193.714-48.042-41.142-48.046 1.714-79.78 1.714-128.178 0-96.086-260.57-96.086-301.714-48.044-24.878 29.054-19.668 104.964-11.662 160.446 6.16 37.038 21.724 76.996 71.548 127.994 0 0.002 0.002 0.002 0.002 0.004 74.738 69.742 187.846 126.738 429.826 127.968v0.030c1.344 0 2.664-0.010 4-0.014 1.338 0.004 2.656 0.014 4 0.014v-0.028c241.98-1.23 355.088-58.226 429.826-127.968 0.002-0.002 0.002-0.004 0.002-0.004 49.824-50.996 65.39-90.954 71.55-127.994z" />
<glyph unicode="&#xe748;" d="M0 758.857l320 128v-768l-320-128zM704 758.857v-768l-320 106.666v768zM1024 886.857v-768l-256-102.4v768z" />
<glyph unicode="&#xe749;" d="M672 758.857l-320 128-352-128v-768l352 128 320-128 352 128v768l-352-128zM384 805.127l256-102.4v-630.138l-256 102.398v630.14zM64 714.029l256 93.090v-631.8l-256-93.088v631.798zM960 163.685l-256-93.092v631.8l256 93.090v-631.798z" />
<glyph unicode="&#xe74a;" d="M658.744 201.601l-210.744 210.746v282.51h128v-229.49l173.256-173.254zM512 950.857c-282.77 0-512-229.23-512-512s229.23-512 512-512 512 229.23 512 512-229.23 512-512 512zM512 54.857c-212.078 0-384 171.922-384 384s171.922 384 384 384c212.078 0 384-171.922 384-384s-171.922-384-384-384z" />
<glyph unicode="&#xe74b;" d="M512 950.857c-282.77 0-512-229.23-512-512s229.23-512 512-512 512 229.23 512 512-229.23 512-512 512zM658.744 201.601l-210.744 210.746v282.51h128v-229.49l173.256-173.254-90.512-90.512z" />
<glyph unicode="&#xe74d;" d="M768 950.857h-576c-35.2 0-64-28.798-64-64v-896c0-35.2 28.798-64 64-64h576c35.2 0 64 28.8 64 64v896c0 35.202-28.8 64-64 64zM480-26.925c-27.492 0-49.782 22.29-49.782 49.782s22.29 49.782 49.782 49.782 49.782-22.29 49.782-49.782-22.29-49.782-49.782-49.782zM768 118.857h-576v704h576v-704z" />
<glyph unicode="&#xe753;" d="M480 950.857v0c265.096 0 480-173.914 480-388.448s-214.904-388.448-480-388.448c-25.458 0-50.446 1.62-74.834 4.71-103.106-102.694-222.172-121.108-341.166-123.814v25.134c64.252 31.354 116 88.466 116 153.734 0 9.106-0.712 18.048-2.030 26.794-108.558 71.214-177.97 179.988-177.97 301.89 0 214.534 214.904 388.448 480 388.448zM996 80.171c0-55.942 36.314-104.898 92-131.772v-21.542c-103.126 2.318-197.786 18.102-287.142 106.126-21.14-2.65-42.794-4.040-64.858-4.040-95.47 0-183.408 25.758-253.614 69.040 144.674 0.506 281.26 46.854 384.834 130.672 52.208 42.252 93.394 91.826 122.414 147.348 30.766 58.866 46.366 121.582 46.366 186.406 0 10.448-0.45 20.836-1.258 31.168 72.57-59.934 117.258-141.622 117.258-231.676 0-104.488-60.158-197.722-154.24-258.764-1.142-7.496-1.76-15.16-1.76-22.966z" horiz-adv-x="1152" />
<glyph unicode="&#xe755;" d="M480 822.857c-50.666 0-99.582-7.95-145.386-23.628-42.924-14.694-81.114-35.436-113.502-61.646-60.044-48.59-93.112-110.802-93.112-175.174 0-35.99 10.066-70.948 29.92-103.898 20.686-34.34 51.898-65.794 90.26-90.958 30.44-19.968 50.936-51.952 56.362-87.95 0.902-5.99 1.63-12.006 2.18-18.032 2.722 2.52 5.424 5.114 8.114 7.794 24.138 24.040 56.688 37.312 90.322 37.312 5.348 0 10.718-0.336 16.094-1.018 19.36-2.452 39.124-3.696 58.748-3.696 50.666 0 99.58 7.948 145.384 23.628 42.926 14.692 81.116 35.434 113.504 61.644 60.046 48.59 93.112 110.802 93.112 175.174s-33.066 126.582-93.112 175.174c-32.388 26.212-70.578 46.952-113.504 61.646-45.804 15.678-94.718 23.628-145.384 23.628zM480 950.857v0c265.096 0 480-173.914 480-388.448s-214.904-388.448-480-388.448c-25.458 0-50.446 1.62-74.834 4.71-103.106-102.694-222.172-121.108-341.166-123.814v25.134c64.252 31.354 116 88.466 116 153.734 0 9.106-0.712 18.048-2.030 26.794-108.558 71.214-177.97 179.988-177.97 301.89 0 214.534 214.904 388.448 480 388.448zM996 80.171c0-55.942 36.314-104.898 92-131.772v-21.542c-103.126 2.318-197.786 18.102-287.142 106.126-21.14-2.65-42.794-4.040-64.858-4.040-95.47 0-183.408 25.758-253.614 69.040 144.674 0.506 281.26 46.854 384.834 130.672 52.208 42.252 93.394 91.826 122.414 147.348 30.766 58.866 46.366 121.582 46.366 186.406 0 10.448-0.45 20.836-1.258 31.168 72.57-59.934 117.258-141.622 117.258-231.676 0-104.488-60.158-197.722-154.24-258.764-1.142-7.496-1.76-15.16-1.76-22.966z" horiz-adv-x="1152" />
<glyph unicode="&#xe756;" d="M622.826 248.121c-22.11 3.518-22.614 64.314-22.614 64.314s64.968 64.316 79.128 150.802c38.090 0 61.618 91.946 23.522 124.296 1.59 34.054 48.96 267.324-190.862 267.324s-192.45-233.27-190.864-267.324c-38.094-32.35-14.57-124.296 23.522-124.296 14.158-86.486 79.128-150.802 79.128-150.802s-0.504-60.796-22.614-64.314c-71.22-11.332-337.172-128.634-337.172-257.264h896c0 128.63-265.952 245.932-337.174 257.264z" />
<glyph unicode="&#xe757;" d="M734.994 145.483c-18.952 2.988-19.384 54.654-19.384 54.654s55.688 54.656 67.824 128.152c32.652 0 52.814 78.138 20.164 105.628 1.362 28.94 41.968 227.176-163.598 227.176-205.564 0-164.958-198.236-163.598-227.176-32.654-27.49-12.488-105.628 20.162-105.628 12.134-73.496 67.826-128.152 67.826-128.152s-0.432-51.666-19.384-54.654c-61.048-9.632-289.006-109.316-289.006-218.626h768c0 109.31-227.958 208.994-289.006 218.626zM344.054 128.047c44.094 27.15 97.626 52.308 141.538 67.424-15.752 22.432-33.294 52.936-44.33 89.062-15.406 12.566-27.944 30.532-35.998 52.602-8.066 22.104-11.122 46.852-8.608 69.684 1.804 16.392 6.478 31.666 13.65 45.088-4.35 46.586-7.414 138.034 52.448 204.732 23.214 25.866 52.556 44.46 87.7 55.686-6.274 64.76-39.16 140.77-166.454 140.77-205.564 0-164.958-198.236-163.598-227.176-32.654-27.49-12.488-105.628 20.162-105.628 12.134-73.496 67.826-128.152 67.826-128.152s-0.432-51.666-19.384-54.654c-61.048-9.634-289.006-109.318-289.006-218.628h329.596c4.71 3.074 9.506 6.14 14.458 9.19z" />
<glyph unicode="&#xe75b;" d="M1024 950.857v-384l-138.26 138.26-212-212-107.48 107.48 212 212-138.26 138.26zM245.74 812.597l212-212-107.48-107.48-212 212-138.26-138.26v384h384zM885.74 172.597l138.26 138.26v-384h-384l138.26 138.26-212 212 107.48 107.48zM457.74 277.117l-212-212 138.26-138.26h-384v384l138.26-138.26 212 212z" />
<glyph unicode="&#xe75c;" d="M64 374.857h384v-384l-138.26 138.26-202-202-107.48 107.48 202 202zM821.74 236.597l202-202-107.48-107.48-202 202-138.26-138.26v384h384zM960 502.857h-384v384l138.26-138.26 202 202 107.48-107.48-202-202zM309.74 748.597l138.26 138.26v-384h-384l138.26 138.26-202 202 107.48 107.48z" />
<glyph unicode="&#xe761;" d="M384 438.857h-320v128h320v128l192-192-192-192zM1024 950.857v-832l-384-192v192h-384v256h64v-192h320v576l256 128h-576v-256h-64v320z" />
<glyph unicode="&#xe762;" d="M768 310.857v128h-320v128h320v128l192-192zM704 374.857v-256h-320v-192l-384 192v832h704v-320h-64v256h-512l256-128v-576h256v192z" />
<glyph unicode="&#xe763;" d="M512 950.857c-282.77 0-512-229.23-512-512s229.23-512 512-512 512 229.23 512 512-229.23 512-512 512zM512 22.857c-229.75 0-416 186.25-416 416s186.25 416 416 416 416-186.25 416-416-186.25-416-416-416zM384 662.857l384-224-384-224z" />
<glyph unicode="&#xe76f;" d="M995.828-44.971c-37.566-37.562-98.452-37.562-136.016 0l-169.726 169.728c-69.778-44.732-152.262-71.436-241.32-71.436-247.83 0-448.766 200.908-448.766 448.768s200.936 448.768 448.766 448.768c247.862 0 448.768-200.906 448.768-448.768 0-89.058-26.704-171.542-71.436-241.35l169.728-169.696c37.564-37.564 37.564-98.448 0.002-136.014zM448.766 822.637c-177.022 0-320.548-143.526-320.548-320.548 0-177.052 143.526-320.548 320.548-320.548 177.054 0 320.548 143.496 320.548 320.548 0 177.022-143.494 320.548-320.548 320.548zM512.876 309.761h-128.218v128.218h-128.218v128.218h128.218v128.22h128.218v-128.22h128.22v-128.218h-128.22v-128.218z" />
<glyph unicode="&#xe770;" d="M995.828 91.045l-169.728 169.696c44.732 69.806 71.436 152.292 71.436 241.35 0 247.86-200.908 448.766-448.77 448.766-247.83 0-448.766-200.906-448.766-448.768s200.936-448.768 448.766-448.768c89.058 0 171.542 26.704 241.32 71.436l169.726-169.728c37.564-37.562 98.45-37.562 136.016 0 37.562 37.566 37.562 98.45 0 136.016zM448.766 181.541c-177.022 0-320.548 143.496-320.548 320.548 0 177.022 143.526 320.548 320.548 320.548 177.054 0 320.548-143.526 320.548-320.548 0-177.052-143.494-320.548-320.548-320.548zM256.438 437.981h384.658v128.218h-384.658v-128.218z" />
<glyph unicode="&#xe771;" d="M512 950.857c-282.75 0-512-229.25-512-512 0-282.782 229.25-512 512-512 282.782 0 512 229.218 512 512 0 282.75-229.218 512-512 512zM512 54.857c-212.062 0-384 171.938-384 384s171.938 384 384 384c212.094 0 384-171.938 384-384s-171.906-384-384-384zM256 374.857h512v128h-512v-128z" />
<glyph unicode="&#xe772;" d="M512-73.143c-282.75 0-512 229.218-512 512 0 282.75 229.25 512 512 512s512-229.25 512-512c0-282.782-229.25-512-512-512zM512 822.857c-212.062 0-384-171.938-384-384s171.938-384 384-384 384 171.938 384 384-171.938 384-384 384zM448 310.857h128v-128h-128v128zM448 694.857h128v-320h-128v320z" />
<glyph unicode="&#xe773;" d="M512-73.143c-282.75 0-512 229.218-512 512 0 282.75 229.25 512 512 512s512-229.25 512-512c0-282.782-229.25-512-512-512zM512 822.857c-212.062 0-384-171.938-384-384s171.938-384 384-384 384 171.938 384 384-171.938 384-384 384zM512 694.857c-106.062 0-192-85.968-192-192h128c0 35.344 28.624 64 64 64s64-28.656 64-64-28.624-64-64-64c-2.45 0-10.216 0-32 0-17.688 0-32-14.344-32-32v-96h128v11.75c74.376 26.438 128 96.782 128 180.25 0 106.032-85.938 192-192 192zM512 246.857h-64v-64h128v64z" />
<glyph unicode="&#xe774;" d="M149.932 76.831c-199.94 199.94-199.94 524.132 0 724.074 200.004 199.94 524.134 199.94 724.136 0 199.94-199.942 199.94-524.134 0-724.074-200.002-199.97-524.132-199.97-724.136 0zM783.566 710.403c-150.002 149.97-393.13 149.97-543.070 0-150.002-149.97-150.002-393.1 0-543.070 149.94-149.972 393.068-149.972 543.070 0 149.942 149.972 149.942 393.1 0 543.070zM376.248 212.583l-90.502 90.532 135.752 135.754-135.752 135.752 90.502 90.534 135.752-135.784 135.754 135.784 90.5-90.534-135.752-135.752 135.752-135.754-90.5-90.532-135.754 135.784-135.752-135.784z" />
<glyph unicode="&#xe778;" d="M384 374.857h-320c-35.376 0-64-28.624-64-64v-320c0-35.376 28.624-64 64-64h320c35.376 0 64 28.624 64 64v320c0 35.376-28.624 64-64 64zM320 54.857h-192v192h192v-192zM384 950.857h-320c-35.376 0-64-28.624-64-64v-320c0-35.376 28.624-64 64-64h320c35.376 0 64 28.624 64 64v320c0 35.376-28.624 64-64 64zM320 630.857h-192v192h192v-192zM960 374.857h-320c-35.376 0-64-28.624-64-64v-320c0-35.376 28.624-64 64-64h320c35.376 0 64 28.624 64 64v320c0 35.376-28.624 64-64 64zM896 54.857h-192v192h192v-192zM960 950.857h-320c-35.376 0-64-28.624-64-64v-320c0-35.376 28.624-64 64-64h320c35.376 0 64 28.624 64 64v320c0 35.376-28.624 64-64 64zM896 630.857h-192v192h192v-192z" />
<glyph unicode="&#xe7b0;" d="M770.048 740.201l-120.736-268h-35.136l128.768 285.312h-198.816v-664.672c40.96-1.504 250.016-69.344 250.016-69.344v-32.64h-561.92v34.848c0 0 213.696 67.168 245.888 67.168v664.64h-192.48l128.8-285.312h-35.136l-120.736 268-120.736-268h-35.136l129.536 286.912v33.088h216.128c0 43.296 29.024 78.656 62.88 78.656 35.808 0 62.88-37.376 62.88-78.656h220.096v-28.384l131.712-291.616h-35.136l-120.736 268zM416.64 439.529c0-86.176-59.776-169.024-158.048-169.024-96.064 0-158.048 82.848-158.048 169.024-0.032-0.128 316.096-0.128 316.096 0zM616.384 439.529c0-0.16 316.128-0.16 316.128 0 0-86.176-59.776-169.024-158.048-169.024-96.096 0-158.080 82.848-158.080 169.024z" />
<glyph unicode="&#xe7b8;" d="M0 150.857v576h1024v-576h-1024zM64 664.841v-449.984h896v449.984h-896zM672 438.857c0 106.016-71.616 192-160 192h416v-384h-416c88.384 0 160 85.984 160 192zM800 374.857c26.496 0 48 28.672 48 64s-21.504 64-48 64-48-28.672-48-64 21.504-64 48-64zM579.776 519.561c-0.48-1.76-1.152-3.008-1.984-3.808-0.864-0.8-2.016-1.184-3.488-1.184s-3.776 0.896-7.008 2.752c-3.2 1.888-7.136 3.872-11.776 6.048-4.672 2.176-10.048 4.16-16.192 5.984-6.144 1.792-12.864 2.656-20.192 2.656-5.76 0-10.752-0.672-15.008-2.080-4.256-1.376-7.84-3.328-10.688-5.76-2.88-2.464-4.992-5.44-6.4-8.864-1.376-3.424-2.080-7.104-2.080-10.944 0-5.76 1.568-10.72 4.704-14.912s7.328-7.936 12.608-11.2c5.28-3.296 11.232-6.336 17.92-9.184 6.624-2.88 13.44-5.92 20.384-9.088 6.944-3.232 13.728-6.848 20.384-10.912 6.688-4.064 12.64-8.928 17.824-14.592s9.376-12.32 12.608-19.968c3.2-7.68 4.768-16.672 4.768-27.104 0-13.6-2.496-25.504-7.552-35.776-5.088-10.24-11.936-18.816-20.64-25.664-8.672-6.88-18.784-12.032-30.368-15.488-1.472-0.448-3.072-0.64-4.576-0.992v-34.944h-31.456v30.816c-0.416 0-0.768-0.064-1.152-0.064-8.928 0-17.248 0.704-24.896 2.144-7.68 1.472-14.432 3.232-20.288 5.248-5.888 2.048-10.752 4.192-14.688 6.432s-6.752 4.224-8.48 5.952c-1.728 1.728-2.976 4.224-3.712 7.488-0.736 3.296-1.12 7.968-1.12 14.112 0 4.128 0.128 7.584 0.416 10.4s0.704 5.056 1.312 6.816 1.376 2.976 2.4 3.712c0.992 0.704 2.144 1.088 3.488 1.088 1.856 0 4.48-1.088 7.904-3.296 3.392-2.208 7.776-4.64 13.088-7.296 5.344-2.688 11.68-5.088 19.104-7.328 7.392-2.176 15.968-3.296 25.696-3.296 6.4 0 12.128 0.768 17.184 2.304s9.376 3.68 12.896 6.496 6.208 6.272 8.096 10.4c1.888 4.16 2.816 8.736 2.816 13.856 0 5.856-1.632 10.88-4.8 15.104-3.2 4.192-7.36 7.904-12.512 11.2-5.12 3.264-10.944 6.304-17.472 9.184s-13.248 5.92-20.192 9.088c-6.912 3.2-13.664 6.816-20.192 10.912-6.528 4.064-12.352 8.896-17.472 14.56s-9.312 12.384-12.48 20.096c-3.2 7.712-4.8 16.992-4.8 27.776 0 12.416 2.304 23.296 6.88 32.672 4.608 9.376 10.784 17.184 18.592 23.36s16.992 10.816 27.584 13.888c5.44 1.6 11.072 2.72 16.832 3.488v33.088h31.456v-33.088c1.248-0.16 2.496-0.096 3.744-0.288 6.112-0.928 11.872-2.176 17.184-3.776 5.344-1.568 10.048-3.328 14.208-5.344 4.128-1.984 6.848-3.616 8.192-4.96 1.344-1.312 2.208-2.432 2.72-3.36 0.448-0.928 0.832-2.176 1.184-3.712 0.32-1.536 0.576-3.456 0.672-5.824 0.128-2.304 0.192-5.216 0.192-8.672 0-3.872-0.096-7.168-0.288-9.856-0.288-2.528-0.608-4.768-1.088-6.496zM352 438.857c0-106.016 71.616-192 160-192h-416v384h416c-88.384 0-160-85.984-160-192zM224 502.857c-26.528 0-48-28.672-48-64s21.472-64 48-64c26.496 0 48 28.672 48 64s-21.504 64-48 64z" />
<glyph unicode="&#xe7b9;" d="M1087.178 241.29l1.607 481.63-875.101-0.536-0.028 55.24h929.834v-536.363l-56.311 0.028zM1058.797 156.542l-56.282 0.056 1.607 481.63-875.101-0.564-0.028 55.24h929.834v-536.363zM975.881 100.089h-903.37v508.15h903.37v-508.15zM919.401 553.536h-790.437v-396.995h790.409v396.995zM834.737 198.873c0-4.989 1.24-9.639 2.846-14.092h-313.401c77.955 0 141.172 75.814 141.172 169.384s-63.216 169.384-141.172 169.384h313.373c-1.607-4.453-2.846-9.103-2.846-14.12 0-23.392 18.939-42.331 42.331-42.331 5.017 0 9.667 1.24 14.121 2.846v-231.528c-4.453 1.578-9.103 2.846-14.121 2.846-23.364-0.028-42.303-18.995-42.303-42.389zM778.258 412.956c-23.392 0-42.331-25.252-42.331-56.452s18.939-56.452 42.331-56.452 42.331 25.252 42.331 56.452-18.939 56.452-42.331 56.452zM583.283 455.936c0.422-0.818 0.761-1.916 1.042-3.27 0.31-1.352 0.508-3.072 0.592-5.13 0.14-2.058 0.197-4.622 0.197-7.695 0-3.41-0.084-6.313-0.254-8.653-0.197-2.368-0.508-4.312-0.874-5.834-0.451-1.55-1.014-2.678-1.748-3.354-0.761-0.705-1.804-1.070-3.1-1.070s-3.326 0.818-6.172 2.452c-2.846 1.663-6.313 3.41-10.4 5.327s-8.878 3.692-14.289 5.271-11.331 2.368-17.812 2.368c-5.073 0-9.47-0.592-13.219-1.832-3.776-1.24-6.933-2.93-9.441-5.101-2.537-2.17-4.425-4.79-5.636-7.807-1.24-3.044-1.86-6.285-1.86-9.667 0-5.073 1.381-9.441 4.143-13.162 2.762-3.692 6.454-6.99 11.132-9.865 4.65-2.902 9.921-5.58 15.783-8.117s11.865-5.214 17.981-8.004c6.116-2.846 12.118-6.031 18.009-9.639 5.891-3.58 11.132-7.863 15.698-12.851 4.594-5.017 8.314-10.879 11.132-17.643s4.228-14.711 4.228-23.9c0-11.978-2.255-22.519-6.708-31.538-4.453-9.047-10.513-16.628-18.179-22.688s-16.571-10.597-26.802-13.641c-1.296-0.394-2.706-0.564-4.030-0.874v-30.832h-27.761v27.197c-0.366 0-0.676-0.084-1.042-0.084-7.863 0-15.191 0.648-21.955 1.916-6.764 1.296-12.739 2.846-17.897 4.622-5.186 1.804-9.499 3.72-12.964 5.692-3.495 1.972-5.975 3.72-7.496 5.242s-2.621 3.72-3.27 6.594-0.986 7.046-0.986 12.457c0 3.636 0.112 6.708 0.366 9.16 0.226 2.48 0.62 4.481 1.156 6.031 0.536 1.522 1.24 2.621 2.114 3.27 0.874 0.62 1.916 0.958 3.072 0.958 1.663 0 3.974-0.958 6.99-2.93 2.988-1.916 6.849-4.087 11.555-6.426s10.315-4.481 16.854-6.426c6.51-1.944 14.092-2.93 22.659-2.93 5.636 0 10.71 0.676 15.163 2.029 4.481 1.353 8.258 3.27 11.387 5.72 3.1 2.48 5.468 5.552 7.131 9.188 1.663 3.664 2.48 7.723 2.48 12.204 0 5.186-1.438 9.639-4.228 13.331-2.818 3.72-6.482 6.99-11.020 9.893-4.538 2.874-9.667 5.58-15.417 8.089-5.778 2.537-11.697 5.214-17.812 8.033s-12.062 6.031-17.812 9.611c-5.75 3.58-10.907 7.863-15.417 12.88-4.51 4.989-8.201 10.907-11.020 17.7-2.818 6.821-4.228 14.994-4.228 24.52 0 10.935 2.029 20.546 6.088 28.804 4.059 8.286 9.527 15.163 16.403 20.63 6.877 5.44 14.994 9.555 24.322 12.26 4.79 1.381 9.751 2.396 14.852 3.072v29.17h27.761v-29.17c1.099-0.14 2.198-0.084 3.298-0.254 5.411-0.818 10.485-1.916 15.191-3.326 4.678-1.41 8.85-2.959 12.485-4.734 3.664-1.748 6.060-3.185 7.271-4.369 1.099-1.042 1.888-2.029 2.311-2.874zM383.039 354.165c0-93.542 63.188-169.384 141.144-169.384h-313.373c1.578 4.453 2.846 9.103 2.846 14.092 0 23.392-18.967 42.36-42.331 42.36-5.017 0-9.667-1.268-14.12-2.846v231.528c4.453-1.607 9.103-2.846 14.12-2.846 23.392 0 42.331 18.939 42.331 42.331 0 5.017-1.268 9.667-2.846 14.12h313.373c-77.955 0.028-141.143-75.814-141.143-169.356zM270.106 412.956c-23.392 0-42.331-25.252-42.331-56.452s18.967-56.452 42.331-56.452c23.392 0 42.331 25.252 42.331 56.452s-18.939 56.452-42.331 56.452z" horiz-adv-x="1216" />
<glyph unicode="&#xe7ba;" d="M912 214.857h-391.872c11.488 19.808 20.288 41.28 26.112 64h365.76c17.696 0 32-14.304 32-32 0-17.664-14.304-32-32-32zM912 310.857h-359.552c1.312 10.496 2.208 21.152 2.208 32 0 10.88-0.896 21.504-2.208 32h359.552c17.696 0 32-14.304 32-32 0-17.664-14.304-32-32-32zM912 406.857h-365.76c-5.856 22.72-14.624 44.192-26.112 64h391.872c17.696 0 32-14.304 32-32 0-17.664-14.304-32-32-32zM912 502.857h-413.696c-20.8 25.952-46.496 47.776-75.808 64h489.504c17.696 0 32-14.304 32-32 0-17.664-14.304-32-32-32zM912 598.857h-512c-17.696 0-32 14.336-32 32 0 17.696 14.304 32 32 32h512c17.696 0 32-14.304 32-32 0-17.664-14.304-32-32-32zM912 694.857h-512c-17.696 0-32 14.336-32 32 0 17.696 14.304 32 32 32h512c17.696 0 32-14.304 32-32 0-17.664-14.304-32-32-32zM528 342.857c0-123.712-100.32-224-224-224-123.712 0-224 100.288-224 224s100.288 224 224 224c123.68 0 224-100.288 224-224zM383.296 318.505c-3.232 7.648-7.392 14.304-12.608 19.968s-11.136 10.528-17.792 14.592c-6.656 4.064-13.44 7.68-20.384 10.912-6.944 3.2-13.728 6.208-20.384 9.088-6.656 2.848-12.64 5.92-17.888 9.184-5.28 3.264-9.472 7.008-12.608 11.2s-4.704 9.152-4.704 14.912c0 3.84 0.704 7.488 2.080 10.944 1.408 3.424 3.52 6.4 6.4 8.864 2.848 2.432 6.432 4.384 10.688 5.76 4.256 1.408 9.28 2.080 15.008 2.080 7.328 0 14.048-0.864 20.192-2.656 6.112-1.824 11.52-3.776 16.192-5.984 4.672-2.176 8.608-4.192 11.808-6.048s5.536-2.752 7.008-2.752 2.624 0.384 3.488 1.184c0.832 0.8 1.536 2.048 1.984 3.808 0.48 1.728 0.768 3.936 0.992 6.592 0.192 2.688 0.288 5.984 0.288 9.856 0 3.456-0.064 6.368-0.192 8.672-0.128 2.336-0.384 4.288-0.672 5.824-0.352 1.536-0.736 2.784-1.184 3.712-0.512 0.928-1.376 2.048-2.72 3.36-1.344 1.344-4.064 3.008-8.192 4.96-4.128 1.984-8.864 3.776-14.176 5.344-5.344 1.6-11.072 2.848-17.184 3.776-1.248 0.192-2.528 0.128-3.776 0.288v33.088h-31.488v-33.088c-5.792-0.768-11.392-1.92-16.832-3.488-10.592-3.072-19.776-7.68-27.584-13.888s-14.016-14.016-18.592-23.36c-4.608-9.408-6.88-20.288-6.88-32.672 0-10.784 1.6-20.064 4.768-27.776 3.2-7.712 7.36-14.432 12.512-20.096s10.944-10.496 17.472-14.56c6.528-4.096 13.28-7.712 20.192-10.912 6.944-3.2 13.664-6.208 20.192-9.088s12.352-5.952 17.472-9.184c5.152-3.296 9.312-7.008 12.512-11.2 3.2-4.224 4.8-9.248 4.8-15.104 0-5.088-0.928-9.696-2.784-13.856-1.888-4.128-4.576-7.584-8.096-10.4s-7.808-4.96-12.864-6.496c-5.088-1.536-10.784-2.304-17.216-2.304-9.728 0-18.304 1.088-25.696 3.296s-13.76 4.64-19.104 7.328c-5.344 2.656-9.696 5.056-13.088 7.296-3.392 2.176-6.016 3.296-7.904 3.296-1.344 0-2.528-0.384-3.488-1.088-1.024-0.736-1.824-1.984-2.4-3.712-0.608-1.76-1.024-4-1.312-6.816s-0.416-6.272-0.416-10.4c0-6.144 0.384-10.848 1.088-14.112 0.736-3.296 1.984-5.792 3.712-7.488 1.728-1.728 4.544-3.68 8.48-5.952s8.832-4.384 14.688-6.432c5.856-2.016 12.64-3.776 20.288-5.248 7.648-1.44 15.968-2.144 24.896-2.144 0.384 0 0.736 0.064 1.152 0.064v-30.816h31.456v34.944c1.504 0.384 3.104 0.576 4.576 0.992 11.584 3.456 21.728 8.64 30.4 15.488s15.52 15.392 20.608 25.664c5.056 10.272 7.552 22.176 7.552 35.776 0.032 10.336-1.568 19.328-4.736 27.008zM498.304 182.857h413.696c17.696 0 32-14.304 32-32 0-17.664-14.304-32-32-32h-489.504c29.312 16.224 55.008 38.048 75.808 64z" />
<glyph unicode="&#xe7bb;" d="M789.568 249.769c0 0 106.56 72.896 106.56 216.672 0 214.016-226.816 293.152-348.768 291.040-121.984-2.144-158.336-34.24-158.336-34.24s-41.504 30.176-85.504 55.456c-33.664 13.12-41.472 15.008-64.864 7.488-18.72 0-6.944-31.168 0.576-42.4 7.456-11.232 43.712-73.28 43.712-73.28s-76.096-78.368-81.728-129.888c0 0.928-35.84 0.288-55.488 0.288s-17.792-21.408-17.792-21.408l0.544-150.848c0 0-1.216-21.408 16.608-21.408 17.792 0 55.616-0.416 55.616-0.416s53.216-77.28 86.944-91.328c0-0.928-29.152-80.096-29.152-80.096s-14.048-24.352 11.232-33.728c25.28-9.344 91.232-37.024 119.328-45.472 28.064-8.416 32.096 10.688 32.096 10.688l27.808 60.064 181.92-0.288 27.808-61.92c0 0 5.344-28.736 42.784-12.832 37.472 15.904 78.368 34.784 109.28 50.688 30.88 15.904 10.56 45.632 10.56 45.632l-31.744 61.536zM298.304 510.409c-17.056 0-30.88 13.856-30.88 30.912s13.824 30.88 30.88 30.88 30.912-13.824 30.912-30.88-13.856-30.912-30.912-30.912zM733.6 606.665c-9.856-11.68-16.288-3.072-24.224-0.736 0 0-33.632 31.2-83.040 45.76-51.168 15.040-105.024 7.776-105.024 7.776-7.936 2.336-17.568 2.592-17.632 14.848 0.416 15.136 18.784 15.264 18.56 15.776 0 0 60.608 5.6 111.328-9.312 49.888-14.656 88-46.528 88-46.528s20.384-14.048 12.032-27.584z" />
<glyph unicode="&#xe7cc;" d="M910.284 332.19c-31.445 0-56.889-25.472-56.889-56.889v-142.222c0-15.708-12.75-28.444-28.444-28.444h-625.888c-15.723 0-28.444 12.736-28.444 28.444v625.778c0 15.708 12.722 28.444 28.444 28.444h142.222c31.445 0 56.917 25.472 56.917 56.889s-25.474 56.889-56.917 56.889h-227.556c-31.445 0-56.917-25.472-56.917-56.889v-796.444c0-31.417 25.472-56.889 56.917-56.889h796.555c31.445 0 56.889 25.472 56.889 56.889v227.556c0 31.417-25.444 56.889-56.889 56.889zM749.173 764.398l81.305-81.319-338.388-350.889h-93.888v93.876l350.971 338.332zM749.895 901.079c-14.556 0-29.060-5.541-40.171-16.626l-425.328-410.041v-256h256.055l410.112 425.25c22.167 22.167 22.167 58.098 0 80.263l-160.556 160.528c-11.056 11.084-25.611 16.626-40.112 16.626v0z" />
<glyph unicode="&#xe7ed;" d="M170.667 104.635v796.444h-113.778v-853.333c0-31.417 25.472-56.889 56.889-56.889h853.333v113.778h-796.444zM312.889 218.412h56.889c15.723 0 28.444 12.722 28.444 28.444v284.444c0 15.723-12.722 28.444-28.444 28.444h-56.889c-15.723 0-28.444-12.722-28.444-28.444v-284.444c0-15.723 12.722-28.444 28.444-28.444zM483.556 218.412h56.889c15.723 0 28.444 12.722 28.444 28.444v512c0 15.723-12.722 28.444-28.444 28.444h-56.889c-15.723 0-28.444-12.722-28.444-28.444v-512c0-15.723 12.722-28.444 28.444-28.444zM654.222 218.412h56.889c15.723 0 28.444 12.722 28.444 28.444v170.667c0 15.723-12.722 28.444-28.444 28.444h-56.889c-15.723 0-28.444-12.722-28.444-28.444v-170.667c0-15.723 12.722-28.444 28.444-28.444zM824.889 218.412h56.889c15.723 0 28.444 12.722 28.444 28.444v398.222c0 15.723-12.722 28.444-28.444 28.444h-56.889c-15.723 0-28.444-12.722-28.444-28.444v-398.222c0-15.723 12.722-28.444 28.444-28.444z" />
<glyph unicode="&#xf002;" d="M658.286 475.428q0 105.714-75.143 180.857t-180.857 75.143-180.857-75.143-75.143-180.857 75.143-180.857 180.857-75.143 180.857 75.143 75.143 180.857zM950.857 0q0-29.714-21.714-51.429t-51.429-21.714q-30.857 0-51.429 21.714l-196 195.429q-102.286-70.857-228-70.857-81.714 0-156.286 31.714t-128.571 85.714-85.714 128.571-31.714 156.286 31.714 156.286 85.714 128.571 128.571 85.714 156.286 31.714 156.286-31.714 128.571-85.714 85.714-128.571 31.714-156.286q0-125.714-70.857-228l196-196q21.143-21.143 21.143-51.429z" horiz-adv-x="951" />
<glyph unicode="&#xf003;" d="M950.857 91.428v438.857q-18.286-20.571-39.429-37.714-153.143-117.714-243.429-193.143-29.143-24.571-47.429-38.286t-49.429-27.714-58.571-14h-1.143q-27.429 0-58.571 14t-49.429 27.714-47.429 38.286q-90.286 75.429-243.429 193.143-21.143 17.143-39.429 37.714v-438.857q0-7.429 5.429-12.857t12.857-5.429h841.143q7.429 0 12.857 5.429t5.429 12.857zM950.857 692v14t-0.286 7.429-1.714 7.143-3.143 5.143-5.143 4.286-8 1.429h-841.143q-7.429 0-12.857-5.429t-5.429-12.857q0-96 84-162.286 110.286-86.857 229.143-181.143 3.429-2.857 20-16.857t26.286-21.429 25.429-18 28.857-15.714 24.571-5.143h1.143q11.429 0 24.571 5.143t28.857 15.714 25.429 18 26.286 21.429 20 16.857q118.857 94.286 229.143 181.143 30.857 24.571 57.429 66t26.571 75.143zM1024 713.143v-621.714q0-37.714-26.857-64.571t-64.571-26.857h-841.143q-37.714 0-64.571 26.857t-26.857 64.571v621.714q0 37.714 26.857 64.571t64.571 26.857h841.143q37.714 0 64.571-26.857t26.857-64.571z" />
<glyph unicode="&#xf004;" d="M512 0q-14.857 0-25.143 10.286l-356.571 344q-5.714 4.571-15.714 14.857t-31.714 37.429-38.857 55.714-30.571 69.143-13.429 78.857q0 125.714 72.571 196.571t200.571 70.857q35.429 0 72.286-12.286t68.571-33.143 54.571-39.143 43.429-38.857q20.571 20.571 43.429 38.857t54.571 39.143 68.571 33.143 72.286 12.286q128 0 200.571-70.857t72.571-196.571q0-126.286-130.857-257.143l-356-342.857q-10.286-10.286-25.143-10.286z" />
<glyph unicode="&#xf007;" d="M804.571 148q0-68.571-41.714-108.286t-110.857-39.714h-499.429q-69.143 0-110.857 39.714t-41.714 108.286q0 30.286 2 59.143t8 62.286 15.143 62 24.571 55.714 35.429 46.286 48.857 30.571 63.714 11.429q5.143 0 24-12.286t42.571-27.429 61.714-27.429 76.286-12.286 76.286 12.286 61.714 27.429 42.571 27.429 24 12.286q34.857 0 63.714-11.429t48.857-30.571 35.429-46.286 24.571-55.714 15.143-62 8-62.286 2-59.143zM621.714 658.286q0-90.857-64.286-155.143t-155.143-64.286-155.143 64.286-64.286 155.143 64.286 155.143 155.143 64.286 155.143-64.286 64.286-155.143z" horiz-adv-x="805" />
<glyph unicode="&#xf008;" d="M219.429 36.571v73.143q0 14.857-10.857 25.714t-25.714 10.857h-73.143q-14.857 0-25.714-10.857t-10.857-25.714v-73.143q0-14.857 10.857-25.714t25.714-10.857h73.143q14.857 0 25.714 10.857t10.857 25.714zM219.429 256v73.143q0 14.857-10.857 25.714t-25.714 10.857h-73.143q-14.857 0-25.714-10.857t-10.857-25.714v-73.143q0-14.857 10.857-25.714t25.714-10.857h73.143q14.857 0 25.714 10.857t10.857 25.714zM219.429 475.428v73.143q0 14.857-10.857 25.714t-25.714 10.857h-73.143q-14.857 0-25.714-10.857t-10.857-25.714v-73.143q0-14.857 10.857-25.714t25.714-10.857h73.143q14.857 0 25.714 10.857t10.857 25.714zM804.571 36.571v292.571q0 14.857-10.857 25.714t-25.714 10.857h-438.857q-14.857 0-25.714-10.857t-10.857-25.714v-292.571q0-14.857 10.857-25.714t25.714-10.857h438.857q14.857 0 25.714 10.857t10.857 25.714zM219.429 694.857v73.143q0 14.857-10.857 25.714t-25.714 10.857h-73.143q-14.857 0-25.714-10.857t-10.857-25.714v-73.143q0-14.857 10.857-25.714t25.714-10.857h73.143q14.857 0 25.714 10.857t10.857 25.714zM1024 36.571v73.143q0 14.857-10.857 25.714t-25.714 10.857h-73.143q-14.857 0-25.714-10.857t-10.857-25.714v-73.143q0-14.857 10.857-25.714t25.714-10.857h73.143q14.857 0 25.714 10.857t10.857 25.714zM804.571 475.428v292.571q0 14.857-10.857 25.714t-25.714 10.857h-438.857q-14.857 0-25.714-10.857t-10.857-25.714v-292.571q0-14.857 10.857-25.714t25.714-10.857h438.857q14.857 0 25.714 10.857t10.857 25.714zM1024 256v73.143q0 14.857-10.857 25.714t-25.714 10.857h-73.143q-14.857 0-25.714-10.857t-10.857-25.714v-73.143q0-14.857 10.857-25.714t25.714-10.857h73.143q14.857 0 25.714 10.857t10.857 25.714zM1024 475.428v73.143q0 14.857-10.857 25.714t-25.714 10.857h-73.143q-14.857 0-25.714-10.857t-10.857-25.714v-73.143q0-14.857 10.857-25.714t25.714-10.857h73.143q14.857 0 25.714 10.857t10.857 25.714zM1024 694.857v73.143q0 14.857-10.857 25.714t-25.714 10.857h-73.143q-14.857 0-25.714-10.857t-10.857-25.714v-73.143q0-14.857 10.857-25.714t25.714-10.857h73.143q14.857 0 25.714 10.857t10.857 25.714zM1097.143 786.286v-768q0-37.714-26.857-64.571t-64.571-26.857h-914.286q-37.714 0-64.571 26.857t-26.857 64.571v768q0 37.714 26.857 64.571t64.571 26.857h914.286q37.714 0 64.571-26.857t26.857-64.571z" horiz-adv-x="1097" />
<glyph unicode="&#xf009;" d="M438.857 365.714v-219.429q0-29.714-21.714-51.429t-51.429-21.714h-292.571q-29.714 0-51.429 21.714t-21.714 51.429v219.429q0 29.714 21.714 51.429t51.429 21.714h292.571q29.714 0 51.429-21.714t21.714-51.429zM438.857 804.571v-219.429q0-29.714-21.714-51.429t-51.429-21.714h-292.571q-29.714 0-51.429 21.714t-21.714 51.429v219.429q0 29.714 21.714 51.429t51.429 21.714h292.571q29.714 0 51.429-21.714t21.714-51.429zM950.857 365.714v-219.429q0-29.714-21.714-51.429t-51.429-21.714h-292.571q-29.714 0-51.429 21.714t-21.714 51.429v219.429q0 29.714 21.714 51.429t51.429 21.714h292.571q29.714 0 51.429-21.714t21.714-51.429zM950.857 804.571v-219.429q0-29.714-21.714-51.429t-51.429-21.714h-292.571q-29.714 0-51.429 21.714t-21.714 51.429v219.429q0 29.714 21.714 51.429t51.429 21.714h292.571q29.714 0 51.429-21.714t21.714-51.429z" horiz-adv-x="951" />
<glyph unicode="&#xf00a;" d="M292.571 237.714v-109.714q0-22.857-16-38.857t-38.857-16h-182.857q-22.857 0-38.857 16t-16 38.857v109.714q0 22.857 16 38.857t38.857 16h182.857q22.857 0 38.857-16t16-38.857zM292.571 530.286v-109.714q0-22.857-16-38.857t-38.857-16h-182.857q-22.857 0-38.857 16t-16 38.857v109.714q0 22.857 16 38.857t38.857 16h182.857q22.857 0 38.857-16t16-38.857zM658.286 237.714v-109.714q0-22.857-16-38.857t-38.857-16h-182.857q-22.857 0-38.857 16t-16 38.857v109.714q0 22.857 16 38.857t38.857 16h182.857q22.857 0 38.857-16t16-38.857zM292.571 822.857v-109.714q0-22.857-16-38.857t-38.857-16h-182.857q-22.857 0-38.857 16t-16 38.857v109.714q0 22.857 16 38.857t38.857 16h182.857q22.857 0 38.857-16t16-38.857zM658.286 530.286v-109.714q0-22.857-16-38.857t-38.857-16h-182.857q-22.857 0-38.857 16t-16 38.857v109.714q0 22.857 16 38.857t38.857 16h182.857q22.857 0 38.857-16t16-38.857zM1024 237.714v-109.714q0-22.857-16-38.857t-38.857-16h-182.857q-22.857 0-38.857 16t-16 38.857v109.714q0 22.857 16 38.857t38.857 16h182.857q22.857 0 38.857-16t16-38.857zM658.286 822.857v-109.714q0-22.857-16-38.857t-38.857-16h-182.857q-22.857 0-38.857 16t-16 38.857v109.714q0 22.857 16 38.857t38.857 16h182.857q22.857 0 38.857-16t16-38.857zM1024 530.286v-109.714q0-22.857-16-38.857t-38.857-16h-182.857q-22.857 0-38.857 16t-16 38.857v109.714q0 22.857 16 38.857t38.857 16h182.857q22.857 0 38.857-16t16-38.857zM1024 822.857v-109.714q0-22.857-16-38.857t-38.857-16h-182.857q-22.857 0-38.857 16t-16 38.857v109.714q0 22.857 16 38.857t38.857 16h182.857q22.857 0 38.857-16t16-38.857z" />
<glyph unicode="&#xf00b;" d="M292.571 237.714v-109.714q0-22.857-16-38.857t-38.857-16h-182.857q-22.857 0-38.857 16t-16 38.857v109.714q0 22.857 16 38.857t38.857 16h182.857q22.857 0 38.857-16t16-38.857zM292.571 530.286v-109.714q0-22.857-16-38.857t-38.857-16h-182.857q-22.857 0-38.857 16t-16 38.857v109.714q0 22.857 16 38.857t38.857 16h182.857q22.857 0 38.857-16t16-38.857zM1024 237.714v-109.714q0-22.857-16-38.857t-38.857-16h-548.571q-22.857 0-38.857 16t-16 38.857v109.714q0 22.857 16 38.857t38.857 16h548.571q22.857 0 38.857-16t16-38.857zM292.571 822.857v-109.714q0-22.857-16-38.857t-38.857-16h-182.857q-22.857 0-38.857 16t-16 38.857v109.714q0 22.857 16 38.857t38.857 16h182.857q22.857 0 38.857-16t16-38.857zM1024 530.286v-109.714q0-22.857-16-38.857t-38.857-16h-548.571q-22.857 0-38.857 16t-16 38.857v109.714q0 22.857 16 38.857t38.857 16h548.571q22.857 0 38.857-16t16-38.857zM1024 822.857v-109.714q0-22.857-16-38.857t-38.857-16h-548.571q-22.857 0-38.857 16t-16 38.857v109.714q0 22.857 16 38.857t38.857 16h548.571q22.857 0 38.857-16t16-38.857z" />
<glyph unicode="&#xf011;" d="M877.714 438.857q0-89.143-34.857-170.286t-93.714-140-140-93.714-170.286-34.857-170.286 34.857-140 93.714-93.714 140-34.857 170.286q0 104 46 196t129.429 154.286q24.571 18.286 54.571 14.286t47.714-28.571q18.286-24 14-54t-28.286-48.286q-56-42.286-86.571-103.429t-30.571-130.286q0-59.429 23.143-113.429t62.571-93.429 93.429-62.571 113.429-23.143 113.429 23.143 93.429 62.571 62.571 93.429 23.143 113.429q0 69.143-30.571 130.286t-86.571 103.429q-24 18.286-28.286 48.286t14 54q17.714 24.571 48 28.571t54.286-14.286q83.429-62.286 129.429-154.286t46-196zM512 877.714v-365.714q0-29.714-21.714-51.429t-51.429-21.714-51.429 21.714-21.714 51.429v365.714q0 29.714 21.714 51.429t51.429 21.714 51.429-21.714 21.714-51.429z" />
<glyph unicode="&#xf014;" d="M292.571 530.286v-329.143q0-8-5.143-13.143t-13.143-5.143h-36.571q-8 0-13.143 5.143t-5.143 13.143v329.143q0 8 5.143 13.143t13.143 5.143h36.571q8 0 13.143-5.143t5.143-13.143zM438.857 530.286v-329.143q0-8-5.143-13.143t-13.143-5.143h-36.571q-8 0-13.143 5.143t-5.143 13.143v329.143q0 8 5.143 13.143t13.143 5.143h36.571q8 0 13.143-5.143t5.143-13.143zM585.143 530.286v-329.143q0-8-5.143-13.143t-13.143-5.143h-36.571q-8 0-13.143 5.143t-5.143 13.143v329.143q0 8 5.143 13.143t13.143 5.143h36.571q8 0 13.143-5.143t5.143-13.143zM658.286 116.571v541.714h-512v-541.714q0-12.571 4-23.143t8.286-15.429 6-4.857h475.429q1.714 0 6 4.857t8.286 15.429 4 23.143zM274.286 731.428h256l-27.429 66.857q-4 5.143-9.714 6.286h-181.143q-5.714-1.143-9.714-6.286zM804.571 713.143v-36.571q0-8-5.143-13.143t-13.143-5.143h-54.857v-541.714q0-47.429-26.857-82t-64.571-34.571h-475.429q-37.714 0-64.571 33.429t-26.857 80.857v544h-54.857q-8 0-13.143 5.143t-5.143 13.143v36.571q0 8 5.143 13.143t13.143 5.143h176.571l40 95.429q8.571 21.143 30.857 36t45.143 14.857h182.857q22.857 0 45.143-14.857t30.857-36l40-95.429h176.571q8 0 13.143-5.143t5.143-13.143z" horiz-adv-x="805" />
<glyph unicode="&#xf015;" d="M804.571 384v-274.286q0-14.857-10.857-25.714t-25.714-10.857h-219.429v219.429h-146.286v-219.429h-219.429q-14.857 0-25.714 10.857t-10.857 25.714v274.286q0 0.571 0.286 1.714t0.286 1.714l328.571 270.857 328.571-270.857q0.571-1.143 0.571-3.429zM932 423.428l-35.429-42.286q-4.571-5.143-12-6.286h-1.714q-7.429 0-12 4l-395.429 329.714-395.429-329.714q-6.857-4.571-13.714-4-7.429 1.143-12 6.286l-35.429 42.286q-4.571 5.714-4 13.429t6.286 12.286l410.857 342.286q18.286 14.857 43.429 14.857t43.429-14.857l139.429-116.571v111.429q0 8 5.143 13.143t13.143 5.143h109.714q8 0 13.143-5.143t5.143-13.143v-233.143l125.143-104q5.714-4.571 6.286-12.286t-4-13.429z" horiz-adv-x="951" />
<glyph unicode="&#xf016;" d="M838.857 733.714q16-16 27.429-43.429t11.429-50.286v-658.286q0-22.857-16-38.857t-38.857-16h-768q-22.857 0-38.857 16t-16 38.857v914.286q0 22.857 16 38.857t38.857 16h512q22.857 0 50.286-11.429t43.429-27.429zM585.143 873.143v-214.857h214.857q-5.714 16.571-12.571 23.429l-178.857 178.857q-6.857 6.857-23.429 12.571zM804.571 0v585.143h-237.714q-22.857 0-38.857 16t-16 38.857v237.714h-438.857v-877.714h731.429z" />
<glyph unicode="&#xf01f;" d="M877.714 804.571v-256q0-14.857-10.857-25.714t-25.714-10.857h-256q-24 0-33.714 22.857-9.714 22.286 8 39.429l78.857 78.857q-84.571 78.286-199.429 78.286-59.429 0-113.429-23.143t-93.429-62.571-62.571-93.429-23.143-113.429 23.143-113.429 62.571-93.429 93.429-62.571 113.429-23.143q68 0 128.571 29.714t102.286 84q4 5.714 13.143 6.857 8 0 14.286-5.143l78.286-78.857q5.143-4.571 5.429-11.714t-4.286-12.857q-62.286-75.429-150.857-116.857t-186.857-41.429q-89.143 0-170.286 34.857t-140 93.714-93.714 140-34.857 170.286 34.857 170.286 93.714 140 140 93.714 170.286 34.857q84 0 162.571-31.714t139.714-89.429l74.286 73.714q16.571 17.714 40 8 22.286-9.714 22.286-33.714z" />
<glyph unicode="&#xf022;" d="M219.429 274.286v-36.571q0-7.429-5.429-12.857t-12.857-5.429h-36.571q-7.429 0-12.857 5.429t-5.429 12.857v36.571q0 7.429 5.429 12.857t12.857 5.429h36.571q7.429 0 12.857-5.429t5.429-12.857zM219.429 420.571v-36.571q0-7.429-5.429-12.857t-12.857-5.429h-36.571q-7.429 0-12.857 5.429t-5.429 12.857v36.571q0 7.429 5.429 12.857t12.857 5.429h36.571q7.429 0 12.857-5.429t5.429-12.857zM219.429 566.857v-36.571q0-7.429-5.429-12.857t-12.857-5.429h-36.571q-7.429 0-12.857 5.429t-5.429 12.857v36.571q0 7.429 5.429 12.857t12.857 5.429h36.571q7.429 0 12.857-5.429t5.429-12.857zM877.714 274.286v-36.571q0-7.429-5.429-12.857t-12.857-5.429h-548.571q-7.429 0-12.857 5.429t-5.429 12.857v36.571q0 7.429 5.429 12.857t12.857 5.429h548.571q7.429 0 12.857-5.429t5.429-12.857zM877.714 420.571v-36.571q0-7.429-5.429-12.857t-12.857-5.429h-548.571q-7.429 0-12.857 5.429t-5.429 12.857v36.571q0 7.429 5.429 12.857t12.857 5.429h548.571q7.429 0 12.857-5.429t5.429-12.857zM877.714 566.857v-36.571q0-7.429-5.429-12.857t-12.857-5.429h-548.571q-7.429 0-12.857 5.429t-5.429 12.857v36.571q0 7.429 5.429 12.857t12.857 5.429h548.571q7.429 0 12.857-5.429t5.429-12.857zM950.857 164.571v475.429q0 7.429-5.429 12.857t-12.857 5.429h-841.143q-7.429 0-12.857-5.429t-5.429-12.857v-475.429q0-7.429 5.429-12.857t12.857-5.429h841.143q7.429 0 12.857 5.429t5.429 12.857zM1024 786.286v-621.714q0-37.714-26.857-64.571t-64.571-26.857h-841.143q-37.714 0-64.571 26.857t-26.857 64.571v621.714q0 37.714 26.857 64.571t64.571 26.857h841.143q37.714 0 64.571-26.857t26.857-64.571z" />
<glyph unicode="&#xf023;" d="M182.857 512h292.571v109.714q0 60.571-42.857 103.429t-103.429 42.857-103.429-42.857-42.857-103.429v-109.714zM658.286 457.143v-329.143q0-22.857-16-38.857t-38.857-16h-548.571q-22.857 0-38.857 16t-16 38.857v329.143q0 22.857 16 38.857t38.857 16h18.286v109.714q0 105.143 75.429 180.571t180.571 75.429 180.571-75.429 75.429-180.571v-109.714h18.286q22.857 0 38.857-16t16-38.857z" horiz-adv-x="658" />
<glyph unicode="&#xf024;" d="M182.857 804.571q0-41.143-36.571-62.857v-723.429q0-7.429-5.429-12.857t-12.857-5.429h-36.571q-7.429 0-12.857 5.429t-5.429 12.857v723.429q-36.571 21.714-36.571 62.857 0 30.286 21.429 51.714t51.714 21.429 51.714-21.429 21.429-51.714zM1024 768v-436q0-14.286-7.143-22t-22.571-15.714q-122.857-66.286-210.857-66.286-34.857 0-70.571 12.571t-62 27.429-66 27.429-81.429 12.571q-109.714 0-265.143-83.429-9.714-5.143-18.857-5.143-14.857 0-25.714 10.857t-10.857 25.714v424q0 18.286 17.714 31.429 12 8 45.143 24.571 134.857 68.571 240.571 68.571 61.143 0 114.286-16.571t125.143-50.286q21.714-10.857 50.286-10.857 30.857 0 67.143 12t62.857 26.857 50.286 26.857 31.143 12q14.857 0 25.714-10.857t10.857-25.714z" />
<glyph unicode="&#xf025;" d="M863.429 347.428q0-2.857-0.571-4-36.571-153.143-153.143-248.286t-273.143-95.143q-83.429 0-161.429 31.429t-139.143 89.714l-73.714-73.714q-10.857-10.857-25.714-10.857t-25.714 10.857-10.857 25.714v256q0 14.857 10.857 25.714t25.714 10.857h256q14.857 0 25.714-10.857t10.857-25.714-10.857-25.714l-78.286-78.286q40.571-37.714 92-58.286t106.857-20.571q76.571 0 142.857 37.143t106.286 102.286q6.286 9.714 30.286 66.857 4.571 13.143 17.143 13.143h109.714q7.429 0 12.857-5.429t5.429-12.857zM877.714 804.571v-256q0-14.857-10.857-25.714t-25.714-10.857h-256q-14.857 0-25.714 10.857t-10.857 25.714 10.857 25.714l78.857 78.857q-84.571 78.286-199.429 78.286-76.571 0-142.857-37.143t-106.286-102.286q-6.286-9.714-30.286-66.857-4.571-13.143-17.143-13.143h-113.714q-7.429 0-12.857 5.429t-5.429 12.857v4q37.143 153.143 154.286 248.286t274.286 95.143q83.429 0 162.286-31.714t140-89.429l74.286 73.714q10.857 10.857 25.714 10.857t25.714-10.857 10.857-25.714z" />
<glyph unicode="&#xf029;" d="M219.429 292.571v-73.143h-73.143v73.143h73.143zM219.429 731.428v-73.143h-73.143v73.143h73.143zM658.286 731.428v-73.143h-73.143v73.143h73.143zM73.143 146.857h219.429v218.857h-219.429v-218.857zM73.143 585.143h219.429v219.429h-219.429v-219.429zM512 585.143h219.429v219.429h-219.429v-219.429zM365.714 438.857v-365.714h-365.714v365.714h365.714zM658.286 146.286v-73.143h-73.143v73.143h73.143zM804.571 146.286v-73.143h-73.143v73.143h73.143zM804.571 438.857v-219.429h-219.429v73.143h-73.143v-219.429h-73.143v365.714h219.429v-73.143h73.143v73.143h73.143zM365.714 877.714v-365.714h-365.714v365.714h365.714zM804.571 877.714v-365.714h-365.714v365.714h365.714z" horiz-adv-x="805" />
<glyph unicode="&#xf02a;" d="M36 73.143h-36v804.571h36v-804.571zM72 73.714h-18.286v804h18.286v-804zM125.714 73.714h-17.714v804h17.714v-804zM215.429 73.714h-17.714v804h17.714v-804zM305.143 73.714h-35.429v804h35.429v-804zM377.143 73.714h-17.714v804h17.714v-804zM413.143 73.714h-17.714v804h17.714v-804zM449.143 73.714h-17.714v804h17.714v-804zM538.857 73.714h-36v804h36v-804zM628.571 73.714h-36v804h36v-804zM700.571 73.714h-36v804h36v-804zM772.571 73.714h-36v804h36v-804zM826.286 73.714h-36v804h36v-804zM934.286 73.714h-53.714v804h53.714v-804zM970.286 73.714h-18.286v804h18.286v-804zM1024 73.143h-36v804.571h36v-804.571z" />
<glyph unicode="&#xf02b;" d="M256 694.857q0 30.286-21.429 51.714t-51.714 21.429-51.714-21.429-21.429-51.714 21.429-51.714 51.714-21.429 51.714 21.429 21.429 51.714zM865.714 365.714q0-30.286-21.143-51.429l-280.571-281.143q-22.286-21.143-52-21.143-30.286 0-51.429 21.143l-408.571 409.143q-21.714 21.143-36.857 57.714t-15.143 66.857v237.714q0 29.714 21.714 51.429t51.429 21.714h237.714q30.286 0 66.857-15.143t58.286-36.857l408.571-408q21.143-22.286 21.143-52z" />
<glyph unicode="&#xf02c;" d="M256 694.857q0 30.286-21.429 51.714t-51.714 21.429-51.714-21.429-21.429-51.714 21.429-51.714 51.714-21.429 51.714 21.429 21.429 51.714zM865.714 365.714q0-30.286-21.143-51.429l-280.571-281.143q-22.286-21.143-52-21.143-30.286 0-51.429 21.143l-408.571 409.143q-21.714 21.143-36.857 57.714t-15.143 66.857v237.714q0 29.714 21.714 51.429t51.429 21.714h237.714q30.286 0 66.857-15.143t58.286-36.857l408.571-408q21.143-22.286 21.143-52zM1085.143 365.714q0-30.286-21.143-51.429l-280.571-281.143q-22.286-21.143-52-21.143-20.571 0-33.714 8t-30.286 25.714l268.571 268.571q21.143 21.143 21.143 51.429 0 29.714-21.143 52l-408.571 408q-21.714 21.714-58.286 36.857t-66.857 15.143h128q30.286 0 66.857-15.143t58.286-36.857l408.571-408q21.143-22.286 21.143-52z" horiz-adv-x="1097" />
<glyph unicode="&#xf02f;" d="M219.429 73.143h512v146.286h-512v-146.286zM219.429 438.857h512v219.429h-91.429q-22.857 0-38.857 16t-16 38.857v91.429h-365.714v-365.714zM877.714 402.286q0 14.857-10.857 25.714t-25.714 10.857-25.714-10.857-10.857-25.714 10.857-25.714 25.714-10.857 25.714 10.857 10.857 25.714zM950.857 402.286v-237.714q0-7.429-5.429-12.857t-12.857-5.429h-128v-91.429q0-22.857-16-38.857t-38.857-16h-548.571q-22.857 0-38.857 16t-16 38.857v91.429h-128q-7.429 0-12.857 5.429t-5.429 12.857v237.714q0 45.143 32.286 77.429t77.429 32.286h36.571v310.857q0 22.857 16 38.857t38.857 16h384q22.857 0 50.286-11.429t43.429-27.429l86.857-86.857q16-16 27.429-43.429t11.429-50.286v-146.286h36.571q45.143 0 77.429-32.286t32.286-77.429z" horiz-adv-x="951" />
<glyph unicode="&#xf030;" d="M548.571 566.857q68 0 116.286-48.286t48.286-116.286-48.286-116.286-116.286-48.286-116.286 48.286-48.286 116.286 48.286 116.286 116.286 48.286zM950.857 804.571q60.571 0 103.429-42.857t42.857-103.429v-512q0-60.571-42.857-103.429t-103.429-42.857h-804.571q-60.571 0-103.429 42.857t-42.857 103.429v512q0 60.571 42.857 103.429t103.429 42.857h128l29.143 77.714q10.857 28 39.714 48.286t59.143 20.286h292.571q30.286 0 59.143-20.286t39.714-48.286l29.143-77.714h128zM548.571 146.286q105.714 0 180.857 75.143t75.143 180.857-75.143 180.857-180.857 75.143-180.857-75.143-75.143-180.857 75.143-180.857 180.857-75.143z" horiz-adv-x="1097" />
<glyph unicode="&#xf034;" d="M996.571 146.286q18.857 0 24-10.571t-6.286-25.429l-72-92.571q-11.429-14.857-28-14.857t-28 14.857l-72 92.571q-11.429 14.857-6.286 25.429t24 10.571h45.714v585.143h-45.714q-18.857 0-24 10.571t6.286 25.429l72 92.571q11.429 14.857 28 14.857t28-14.857l72-92.571q11.429-14.857 6.286-25.429t-24-10.571h-45.714v-585.143h45.714zM46.286 877.143l30.857-15.429q6.857-2.857 120.571-2.857 25.143 0 75.429 1.143t75.429 1.143q20.571 0 61.429-0.286t61.429-0.286h167.429q3.429 0 12-0.286t11.714 0 9.143 1.714 10 5.143 8.571 10l24 0.571q2.286 0 8-0.286t8-0.286q1.143-64 1.143-192 0-45.714-2.857-62.286-22.286-8-38.857-10.286-14.286 25.143-30.857 73.143-1.714 5.143-6.286 27.429t-8.286 42-4.286 20.286q-3.429 4.571-6.857 7.143t-8.857 3.429-7.429 1.429-10.286 0.286-9.429-0.286q-9.714 0-38 0.286t-42.571 0.286-36.571-1.143-40.571-3.429q-5.143-46.286-4.571-77.714 0-53.714 1.143-221.714t1.143-260q0-9.143-1.429-40.857t0-52.286 7.143-39.429q22.857-12 70.857-24.286t68.571-21.429q2.857-22.857 2.857-28.571 0-8-1.714-16.571l-19.429-0.571q-43.429-1.143-124.571 4.571t-118.286 5.714q-28.571 0-86.286-5.143t-86.857-5.143q-1.714 29.143-1.714 29.714v5.143q9.714 15.429 35.143 24.571t56.286 16.571 44.571 15.429q10.857 24 10.857 218.857 0 57.714-1.714 173.143t-1.714 173.143v66.857q0 1.143 0.286 8.857t0.286 14.286-0.571 14.571-1.714 13.714-2.857 8q-6.286 6.857-92.571 6.857-18.857 0-53.143-6.857t-45.714-14.857q-10.857-7.429-19.429-41.429t-18-63.429-24.286-30.571q-24 14.857-32 25.143v218.857z" />
<glyph unicode="&#xf039;" d="M1024 182.857v-73.143q0-14.857-10.857-25.714t-25.714-10.857h-950.857q-14.857 0-25.714 10.857t-10.857 25.714v73.143q0 14.857 10.857 25.714t25.714 10.857h950.857q14.857 0 25.714-10.857t10.857-25.714zM1024 402.286v-73.143q0-14.857-10.857-25.714t-25.714-10.857h-950.857q-14.857 0-25.714 10.857t-10.857 25.714v73.143q0 14.857 10.857 25.714t25.714 10.857h950.857q14.857 0 25.714-10.857t10.857-25.714zM1024 621.714v-73.143q0-14.857-10.857-25.714t-25.714-10.857h-950.857q-14.857 0-25.714 10.857t-10.857 25.714v73.143q0 14.857 10.857 25.714t25.714 10.857h950.857q14.857 0 25.714-10.857t10.857-25.714zM1024 841.143v-73.143q0-14.857-10.857-25.714t-25.714-10.857h-950.857q-14.857 0-25.714 10.857t-10.857 25.714v73.143q0 14.857 10.857 25.714t25.714 10.857h950.857q14.857 0 25.714-10.857t10.857-25.714z" />
<glyph unicode="&#xf03a;" d="M146.286 201.143v-109.714q0-7.429-5.429-12.857t-12.857-5.429h-109.714q-7.429 0-12.857 5.429t-5.429 12.857v109.714q0 7.429 5.429 12.857t12.857 5.429h109.714q7.429 0 12.857-5.429t5.429-12.857zM146.286 420.571v-109.714q0-7.429-5.429-12.857t-12.857-5.429h-109.714q-7.429 0-12.857 5.429t-5.429 12.857v109.714q0 7.429 5.429 12.857t12.857 5.429h109.714q7.429 0 12.857-5.429t5.429-12.857zM146.286 640v-109.714q0-7.429-5.429-12.857t-12.857-5.429h-109.714q-7.429 0-12.857 5.429t-5.429 12.857v109.714q0 7.429 5.429 12.857t12.857 5.429h109.714q7.429 0 12.857-5.429t5.429-12.857zM1024 201.143v-109.714q0-7.429-5.429-12.857t-12.857-5.429h-768q-7.429 0-12.857 5.429t-5.429 12.857v109.714q0 7.429 5.429 12.857t12.857 5.429h768q7.429 0 12.857-5.429t5.429-12.857zM146.286 859.428v-109.714q0-7.429-5.429-12.857t-12.857-5.429h-109.714q-7.429 0-12.857 5.429t-5.429 12.857v109.714q0 7.429 5.429 12.857t12.857 5.429h109.714q7.429 0 12.857-5.429t5.429-12.857zM1024 420.571v-109.714q0-7.429-5.429-12.857t-12.857-5.429h-768q-7.429 0-12.857 5.429t-5.429 12.857v109.714q0 7.429 5.429 12.857t12.857 5.429h768q7.429 0 12.857-5.429t5.429-12.857zM1024 640v-109.714q0-7.429-5.429-12.857t-12.857-5.429h-768q-7.429 0-12.857 5.429t-5.429 12.857v109.714q0 7.429 5.429 12.857t12.857 5.429h768q7.429 0 12.857-5.429t5.429-12.857zM1024 859.428v-109.714q0-7.429-5.429-12.857t-12.857-5.429h-768q-7.429 0-12.857 5.429t-5.429 12.857v109.714q0 7.429 5.429 12.857t12.857 5.429h768q7.429 0 12.857-5.429t5.429-12.857z" />
<glyph unicode="&#xf03e;" d="M365.714 621.714q0-45.714-32-77.714t-77.714-32-77.714 32-32 77.714 32 77.714 77.714 32 77.714-32 32-77.714zM950.857 402.286v-256h-804.571v109.714l182.857 182.857 91.429-91.429 292.571 292.571zM1005.714 804.571h-914.286q-7.429 0-12.857-5.429t-5.429-12.857v-694.857q0-7.429 5.429-12.857t12.857-5.429h914.286q7.429 0 12.857 5.429t5.429 12.857v694.857q0 7.429-5.429 12.857t-12.857 5.429zM1097.143 786.286v-694.857q0-37.714-26.857-64.571t-64.571-26.857h-914.286q-37.714 0-64.571 26.857t-26.857 64.571v694.857q0 37.714 26.857 64.571t64.571 26.857h914.286q37.714 0 64.571-26.857t26.857-64.571z" horiz-adv-x="1097" />
<glyph unicode="&#xf03f;" d="M1024 749.714v-621.714q0-24-22.286-33.714-7.429-2.857-14.286-2.857-15.429 0-25.714 10.857l-230.286 230.286v-94.857q0-68-48.286-116.286t-116.286-48.286h-402.286q-68 0-116.286 48.286t-48.286 116.286v402.286q0 68 48.286 116.286t116.286 48.286h402.286q68 0 116.286-48.286t48.286-116.286v-94.286l230.286 229.714q10.286 10.857 25.714 10.857 6.857 0 14.286-2.857 22.286-9.714 22.286-33.714z" />
<glyph unicode="&#xf052;" d="M-0.088 438.857c0 141.5 114.5 256 256 256 141.438 0 256-114.5 256-256s-114.562-256-256-256c-141.499 0-256 114.5-256 256z" horiz-adv-x="511" />
<glyph unicode="&#xf053;" d="M512 182.857h-512v512h512v-512z" horiz-adv-x="512" />
<glyph unicode="&#xf055;" d="M694.857 402.286v73.143q0 14.857-10.857 25.714t-25.714 10.857h-146.286v146.286q0 14.857-10.857 25.714t-25.714 10.857h-73.143q-14.857 0-25.714-10.857t-10.857-25.714v-146.286h-146.286q-14.857 0-25.714-10.857t-10.857-25.714v-73.143q0-14.857 10.857-25.714t25.714-10.857h146.286v-146.286q0-14.857 10.857-25.714t25.714-10.857h73.143q14.857 0 25.714 10.857t10.857 25.714v146.286h146.286q14.857 0 25.714 10.857t10.857 25.714zM877.714 438.857q0-119.429-58.857-220.286t-159.714-159.714-220.286-58.857-220.286 58.857-159.714 159.714-58.857 220.286 58.857 220.286 159.714 159.714 220.286 58.857 220.286-58.857 159.714-159.714 58.857-220.286z" />
<glyph unicode="&#xf056;" d="M694.857 402.286v73.143q0 14.857-10.857 25.714t-25.714 10.857h-438.857q-14.857 0-25.714-10.857t-10.857-25.714v-73.143q0-14.857 10.857-25.714t25.714-10.857h438.857q14.857 0 25.714 10.857t10.857 25.714zM877.714 438.857q0-119.429-58.857-220.286t-159.714-159.714-220.286-58.857-220.286 58.857-159.714 159.714-58.857 220.286 58.857 220.286 159.714 159.714 220.286 58.857 220.286-58.857 159.714-159.714 58.857-220.286z" />
<glyph unicode="&#xf057;" d="M656.571 309.714q0 14.857-10.857 25.714l-103.429 103.429 103.429 103.429q10.857 10.857 10.857 25.714 0 15.429-10.857 26.286l-51.429 51.429q-10.857 10.857-26.286 10.857-14.857 0-25.714-10.857l-103.429-103.429-103.429 103.429q-10.857 10.857-25.714 10.857-15.429 0-26.286-10.857l-51.429-51.429q-10.857-10.857-10.857-26.286 0-14.857 10.857-25.714l103.429-103.429-103.429-103.429q-10.857-10.857-10.857-25.714 0-15.429 10.857-26.286l51.429-51.429q10.857-10.857 26.286-10.857 14.857 0 25.714 10.857l103.429 103.429 103.429-103.429q10.857-10.857 25.714-10.857 15.429 0 26.286 10.857l51.429 51.429q10.857 10.857 10.857 26.286zM877.714 438.857q0-119.429-58.857-220.286t-159.714-159.714-220.286-58.857-220.286 58.857-159.714 159.714-58.857 220.286 58.857 220.286 159.714 159.714 220.286 58.857 220.286-58.857 159.714-159.714 58.857-220.286z" />
<glyph unicode="&#xf058;" d="M733.714 531.428q0 16-10.286 26.286l-52 51.429q-10.857 10.857-25.714 10.857t-25.714-10.857l-233.143-232.571-129.143 129.143q-10.857 10.857-25.714 10.857t-25.714-10.857l-52-51.429q-10.286-10.286-10.286-26.286 0-15.429 10.286-25.714l206.857-206.857q10.857-10.857 25.714-10.857 15.429 0 26.286 10.857l310.286 310.286q10.286 10.286 10.286 25.714zM877.714 438.857q0-119.429-58.857-220.286t-159.714-159.714-220.286-58.857-220.286 58.857-159.714 159.714-58.857 220.286 58.857 220.286 159.714 159.714 220.286 58.857 220.286-58.857 159.714-159.714 58.857-220.286z" />
</font>
</defs>
</svg>
